<?xml version="1.0"?>
<svg xmlns="http://www.w3.org/2000/svg" width="32" height="32" viewBox="0 0 32 32" fill="none">
<circle cx="16" cy="16" r="15.75" stroke="#1A2F5A" stroke-width="0.5"/>
<path d="M5.59961 27.2L25.5996 3.19995" stroke="#1A2F5A" stroke-width="0.5"/>
<path fill-rule="evenodd" clip-rule="evenodd" d="M9 20.1926L11.4427 18.2168L11.7265 18.7546C12.0061 19.2842 12.3582 19.7535 12.7837 20.1643C13.1958 20.5623 13.6981 20.88 14.2981 21.1142C14.4701 21.1813 14.6508 21.2391 14.8404 21.2873V17.0053L14.1947 16.8589C13.2018 16.6272 12.375 16.3141 11.7352 15.9053L11.727 15.9001C11.0937 15.4779 10.6114 14.9682 10.3091 14.3636L10.3064 14.3581C10.0162 13.7597 9.87236 13.1167 9.87236 12.436C9.87236 11.5085 10.1238 10.6535 10.6254 9.88315L10.6298 9.87638C11.1491 9.10638 11.8767 8.50017 12.7921 8.05109L12.7954 8.04947C13.4098 7.75367 14.0929 7.55813 14.8404 7.45731V4.99998H17.4964V7.47689C18.3501 7.60708 19.1299 7.86426 19.8303 8.25441C20.9095 8.84661 21.7874 9.73056 22.4673 10.8865L22.6912 11.2671L20.3243 13.0878L20.0409 12.5858C19.5106 11.6464 18.9202 11.0215 18.2863 10.6633L18.2822 10.6609C18.0429 10.5227 17.7813 10.4089 17.4964 10.321V14.6422L18.3266 14.8274C18.327 14.8275 18.3275 14.8276 18.328 14.8277C19.8352 15.1555 20.9859 15.6815 21.6678 16.4737C22.3488 17.2306 22.6804 18.1685 22.6804 19.252C22.6804 20.2314 22.4024 21.1117 21.8409 21.8738C21.299 22.6312 20.5327 23.2107 19.5693 23.6236L19.5653 23.6253C18.9404 23.8866 18.2496 24.0589 17.4964 24.1468V26.64H14.8404V24.1282C14.2398 24.0497 13.6777 23.9178 13.1556 23.7307C12.2591 23.4092 11.4774 22.9735 10.8183 22.4184C10.1708 21.8732 9.63781 21.2556 9.22361 20.5652L9 20.1926ZM14.8404 23.6237C15.0035 23.6463 15.1702 23.6647 15.3404 23.679V26.14H16.9964V23.691C17.1666 23.6792 17.3333 23.6633 17.4964 23.6432C18.1866 23.5581 18.8119 23.3984 19.3724 23.164C20.2684 22.78 20.9564 22.252 21.4364 21.58C21.9324 20.908 22.1804 20.132 22.1804 19.252C22.1804 18.276 21.8844 17.46 21.2924 16.804C20.7164 16.132 19.6924 15.636 18.2204 15.316L16.9964 15.043V9.69039C17.1684 9.71964 17.3351 9.75631 17.4964 9.8004C17.871 9.90285 18.2163 10.0454 18.5324 10.228C19.157 10.581 19.7182 11.1415 20.2161 11.9094C20.3048 12.0463 20.3916 12.1899 20.4764 12.34L22.0364 11.14C21.3964 10.052 20.5804 9.23598 19.5884 8.69199C18.9659 8.34503 18.2685 8.10871 17.4964 7.98304C17.333 7.95646 17.1664 7.93483 16.9964 7.91815V5.49998H15.3404V7.90622C15.1698 7.92009 15.0032 7.93872 14.8404 7.96213C14.1647 8.05926 13.5553 8.23855 13.0124 8.49998C12.1644 8.91598 11.5084 9.46798 11.0444 10.156C10.5964 10.844 10.3724 11.604 10.3724 12.436C10.3724 13.044 10.5004 13.612 10.7564 14.14C11.0124 14.652 11.4284 15.1 12.0044 15.484C12.5804 15.852 13.3484 16.148 14.3084 16.372L15.3404 16.6059V21.8942C15.1689 21.8698 15.0022 21.839 14.8404 21.8017C14.5873 21.7435 14.3459 21.6696 14.1164 21.58C13.4604 21.324 12.9004 20.972 12.4364 20.524C12.0933 20.1928 11.7941 19.8266 11.5385 19.4255C11.4483 19.284 11.3636 19.1382 11.2844 18.988L9.65236 20.308C10.0364 20.948 10.5324 21.524 11.1404 22.036C11.7484 22.548 12.4764 22.956 13.3244 23.26C13.7909 23.4273 14.2963 23.5485 14.8404 23.6237ZM16.9964 16.9813V21.9424C17.1692 21.9299 17.3359 21.912 17.4964 21.8887C18.1655 21.7917 18.7268 21.6008 19.1804 21.316C19.8844 20.884 20.2364 20.252 20.2364 19.42C20.2364 18.924 20.0684 18.484 19.7324 18.1C19.4124 17.7 18.8044 17.396 17.9084 17.188L16.9964 16.9813ZM17.7965 17.6753C17.7961 17.6752 17.7957 17.6751 17.7953 17.675L17.4964 17.6073V21.3831C18.0782 21.2911 18.547 21.1233 18.9145 20.8925L18.9188 20.8898C19.4733 20.5495 19.7364 20.0797 19.7364 19.42C19.7364 19.0489 19.6148 18.725 19.3561 18.4292L19.3488 18.4209L19.3419 18.4123C19.1294 18.1467 18.6594 17.8758 17.7965 17.6753ZM14.8404 14.5614C14.855 14.565 14.8696 14.5685 14.8844 14.572L15.3404 14.6737V9.62497C15.1656 9.63831 14.999 9.65802 14.8404 9.6841C14.4766 9.74391 14.1553 9.8372 13.8764 9.96399C13.3484 10.188 12.9564 10.492 12.7004 10.876C12.4444 11.26 12.3164 11.692 12.3164 12.172C12.3164 12.54 12.3884 12.876 12.5324 13.18C12.6764 13.484 12.9324 13.756 13.3004 13.996C13.6759 14.2151 14.1893 14.4035 14.8404 14.5614ZM13.563 13.5703C13.86 13.7416 14.2805 13.9031 14.8404 14.0462V10.1916C14.5482 10.2451 14.2968 10.3221 14.0833 10.4192L14.0717 10.4244C13.6117 10.6196 13.3064 10.8683 13.1164 11.1533C12.9174 11.4518 12.8164 11.7865 12.8164 12.172C12.8164 12.473 12.8748 12.7349 12.9842 12.9659C13.0773 13.1624 13.2556 13.3679 13.563 13.5703Z" fill="#1A2F5A"/>
</svg>
