<?xml version="1.0"?>
<svg xmlns="http://www.w3.org/2000/svg" width="32" height="32" viewBox="0 0 32 32" fill="none">
<circle cx="16" cy="16" r="15.75" stroke="#1A2F5A" stroke-width="0.5"/>
<path d="M5.59961 27.2L25.5996 3.19995" stroke="#1A2F5A" stroke-width="0.5"/>
<path d="M20.4973 11.041C21.1558 10.1092 21.8819 9.03357 22.2355 7.35809C22.5891 9.03357 23.3152 10.1092 23.9737 11.041C24.0003 11.0787 24.0268 11.1161 24.0531 11.1533C24.7689 12.1645 25.3504 12.986 25.3504 14.2757C25.3504 15.8866 23.9362 17.2202 22.2355 17.2202C20.5348 17.2202 19.1206 15.8866 19.1206 14.2757C19.1206 12.986 19.7022 12.1645 20.4179 11.1533C20.4442 11.1161 20.4707 11.0787 20.4973 11.041ZM12.8845 23.263C12.8845 21.9733 13.466 21.1517 14.1818 20.1405C14.2081 20.1034 14.2345 20.066 14.2612 20.0283C14.92 19.096 15.6464 18.0198 15.9999 16.3429C16.3533 18.0198 17.0798 19.096 17.7386 20.0283C17.7652 20.066 17.7917 20.1034 17.818 20.1405C18.5337 21.1517 19.1153 21.9733 19.1153 23.263C19.1153 24.8739 17.7011 26.2075 16.0004 26.2075C14.2995 26.2075 12.8845 24.8747 12.8845 23.263ZM9.76527 7.35809C10.1189 9.03357 10.845 10.1092 11.5035 11.041C11.5301 11.0787 11.5566 11.1161 11.5829 11.1533C12.2986 12.1645 12.8802 12.986 12.8802 14.2757C12.8802 15.8866 11.466 17.2202 9.76527 17.2202C8.06457 17.2202 6.65039 15.8866 6.65039 14.2757C6.65039 12.9854 7.23204 12.1638 7.94786 11.1526C7.97409 11.1156 8.0005 11.0783 8.02707 11.0407C8.68555 10.1089 9.41163 9.03352 9.76527 7.35809Z" stroke="#1A2F5A" stroke-width="0.5"/>
</svg>
