<?xml version="1.0"?>
<svg xmlns="http://www.w3.org/2000/svg" width="32" height="32" viewBox="0 0 32 32" fill="none">
<g clip-path="url(#clip0_1282_909)">
<path d="M22.5177 24.5543L23.9467 26.2508L24.4984 25.8027L23.037 23.8769L22.5177 24.5543Z" fill="#F4F0E9" stroke="#1A2F5A" stroke-width="0.5" stroke-miterlimit="10"/>
<path d="M25.1171 21.1639L27.1293 22.1L26.8397 22.7491L24.6007 21.8375L25.1171 21.1639Z" fill="#F4F0E9" stroke="#1A2F5A" stroke-width="0.5" stroke-miterlimit="10"/>
<path d="M25.305 21.9328L23.2654 24.5928C23.0188 24.9144 22.5652 24.9872 22.2211 24.7654L20.0909 23.3845L23.3655 19.1538L25.2132 20.895C25.507 21.1744 25.5458 21.6187 25.305 21.9328Z" fill="#F4F0E9" stroke="#1A2F5A" stroke-width="0.5" stroke-miterlimit="10"/>
<path d="M10.0228 9.42189L7.58849 7.05666L7.10128 7.57234L9.59117 10.1604L10.0228 9.42189Z" fill="#F4F0E9" stroke="#1A2F5A" stroke-width="0.5" stroke-miterlimit="10"/>
<path d="M7.74094 7.06539L7.1194 7.70038L6.55592 7.11811C6.55592 7.11811 6.67267 6.55873 7.15226 6.54793L7.74094 7.06539Z" fill="#F4F0E9" stroke="#1A2F5A" stroke-width="0.5" stroke-miterlimit="10"/>
<path d="M7.25776 13.0279L4.33895 11.2946L4.71342 10.6864L7.85609 12.4232L7.25776 13.0279Z" fill="#F4F0E9" stroke="#1A2F5A" stroke-width="0.5" stroke-miterlimit="10"/>
<path d="M4.387 11.4395L4.83894 10.6745L4.13039 10.2814C4.13039 10.2814 3.62432 10.5423 3.73835 11.0082L4.39086 11.4425L4.387 11.4395Z" fill="#F4F0E9" stroke="#1A2F5A" stroke-width="0.5" stroke-miterlimit="10"/>
<path d="M21.1087 23.51L23.771 20.1017C24.2391 19.4992 24.0574 18.5788 23.3674 18.0497C20.4755 15.8263 13.4021 10.4988 11.0413 9.72213C8.6843 8.94836 6.64028 8.56474 6.02525 9.34291C5.4663 10.0559 6.62929 12.1553 7.89883 14.012C9.65924 16.5936 16.2864 21.6089 19.0571 23.6552C19.7403 24.1611 20.6523 24.0973 21.1058 23.5138L21.1087 23.51Z" fill="#F4F0E9" stroke="#1A2F5A" stroke-width="0.5" stroke-miterlimit="10"/>
<path d="M23.7865 26.2361L24.4841 25.6775L24.9742 26.3237C24.9742 26.3237 24.7861 26.8644 24.3085 26.8166L23.7865 26.2361Z" fill="#F4F0E9" stroke="#1A2F5A" stroke-width="0.5" stroke-miterlimit="10"/>
<path d="M27.0523 21.9688L26.6939 22.7875L27.445 23.0931C27.445 23.0931 27.9184 22.7711 27.7484 22.3223L27.0523 21.9688Z" fill="#F4F0E9" stroke="#1A2F5A" stroke-width="0.5" stroke-miterlimit="10"/>
</g>
<circle cx="16" cy="16" r="15.75" stroke="#1A2F5A" stroke-width="0.5"/>
<path d="M5.60059 27.2L25.6006 3.19995" stroke="#1A2F5A" stroke-width="0.5"/>
<defs>
<clipPath id="clip0_1282_909">
<rect width="7.83356" height="26.9332" fill="white" transform="translate(2.66663 11.5498) rotate(-52.5205)"/>
</clipPath>
</defs>
</svg>
