<?xml version="1.0"?>
<svg xmlns="http://www.w3.org/2000/svg" width="192" height="24" viewBox="0 0 192 24" fill="none">
<path d="M10.6206 6.44L5.78863 11.928L5.61263 11.752L2.97263 14.744L2.63663 12.696L8.06063 6.44H10.6206ZM3.72463 6.44V17H1.51663V6.44H3.72463ZM6.39663 10.088L10.7486 17H8.22062L4.70063 11.32L6.39663 10.088ZM13.256 7.848C12.7973 7.848 12.456 7.752 12.232 7.56C12.008 7.35733 11.896 7.064 11.896 6.68C11.896 6.28533 12.008 5.992 12.232 5.8C12.456 5.59733 12.7973 5.496 13.256 5.496C13.7147 5.496 14.056 5.59733 14.28 5.8C14.504 5.992 14.616 6.28533 14.616 6.68C14.616 7.064 14.504 7.35733 14.28 7.56C14.056 7.752 13.7147 7.848 13.256 7.848ZM14.344 9V17H12.152V9H14.344ZM20.3796 17.16C19.537 17.16 18.801 16.9947 18.1716 16.664C17.553 16.3333 17.073 15.8587 16.7316 15.24C16.3903 14.6213 16.2196 13.8747 16.2196 13C16.2196 12.1253 16.3903 11.3787 16.7316 10.76C17.073 10.1413 17.5476 9.66667 18.1556 9.336C18.7743 9.00533 19.4783 8.84 20.2676 8.84C21.0783 8.84 21.7663 9.00533 22.3316 9.336C22.897 9.656 23.329 10.0987 23.6276 10.664C23.9263 11.2187 24.0756 11.8533 24.0756 12.568C24.0756 12.7813 24.0703 12.984 24.0596 13.176C24.049 13.368 24.033 13.5387 24.0116 13.688H17.6276V12.168H23.0516L21.9956 12.552C21.9956 11.88 21.841 11.3627 21.5316 11C21.233 10.6373 20.8063 10.456 20.2516 10.456C19.8463 10.456 19.4943 10.552 19.1956 10.744C18.9076 10.936 18.689 11.224 18.5396 11.608C18.3903 11.9813 18.3156 12.456 18.3156 13.032C18.3156 13.5973 18.3956 14.0667 18.5556 14.44C18.7263 14.8027 18.961 15.0747 19.2596 15.256C19.569 15.4373 19.937 15.528 20.3636 15.528C20.833 15.528 21.2116 15.4373 21.4996 15.256C21.7876 15.0747 22.0116 14.824 22.1716 14.504L23.9156 15.176C23.745 15.592 23.4836 15.9493 23.1316 16.248C22.7903 16.5467 22.3796 16.776 21.8996 16.936C21.4303 17.0853 20.9236 17.16 20.3796 17.16ZM25.9333 17V9H27.8373L27.9813 10.568C28.1946 10.0133 28.5039 9.58667 28.9093 9.288C29.3253 8.98933 29.8426 8.84 30.4613 8.84C30.6426 8.84 30.8079 8.856 30.9573 8.888C31.1066 8.92 31.2293 8.96267 31.3253 9.016L31.0693 10.856C30.9626 10.8133 30.8293 10.7813 30.6693 10.76C30.5199 10.7387 30.3226 10.728 30.0773 10.728C29.7573 10.728 29.4479 10.808 29.1493 10.968C28.8506 11.1173 28.6053 11.352 28.4133 11.672C28.2213 11.9813 28.1253 12.376 28.1253 12.856V17H25.9333ZM35.6645 17.16C34.8538 17.16 34.1125 17.016 33.4405 16.728C32.7792 16.44 32.2405 16.0347 31.8245 15.512L33.0885 14.232C33.3445 14.616 33.6858 14.9307 34.1125 15.176C34.5392 15.4213 35.0458 15.544 35.6325 15.544C36.0485 15.544 36.3792 15.4853 36.6245 15.368C36.8805 15.24 37.0085 15.0427 37.0085 14.776C37.0085 14.6053 36.9498 14.4613 36.8325 14.344C36.7152 14.216 36.4805 14.1147 36.1285 14.04L34.7205 13.752C33.7925 13.56 33.1312 13.272 32.7365 12.888C32.3525 12.4933 32.1605 11.9867 32.1605 11.368C32.1605 10.9307 32.2885 10.52 32.5445 10.136C32.8112 9.752 33.2058 9.44267 33.7285 9.208C34.2512 8.96267 34.9018 8.84 35.6805 8.84C36.4805 8.84 37.1738 8.968 37.7605 9.224C38.3578 9.46933 38.8272 9.83733 39.1685 10.328L37.8565 11.608C37.6218 11.2347 37.3125 10.952 36.9285 10.76C36.5552 10.5573 36.1605 10.456 35.7445 10.456C35.4458 10.456 35.1898 10.488 34.9765 10.552C34.7632 10.616 34.6032 10.7067 34.4965 10.824C34.3898 10.9307 34.3365 11.0693 34.3365 11.24C34.3365 11.4107 34.4112 11.56 34.5605 11.688C34.7098 11.8053 34.9818 11.9067 35.3765 11.992L37.0085 12.328C37.7978 12.488 38.3632 12.76 38.7045 13.144C39.0458 13.5173 39.2165 13.9707 39.2165 14.504C39.2165 15.016 39.0778 15.4747 38.8005 15.88C38.5338 16.2747 38.1338 16.5893 37.6005 16.824C37.0778 17.048 36.4325 17.16 35.6645 17.16ZM43.7965 6.552V14.392C43.7965 14.776 43.8925 15.0587 44.0845 15.24C44.2872 15.4107 44.5592 15.496 44.9005 15.496C45.1672 15.496 45.4018 15.4587 45.6045 15.384C45.8072 15.2987 45.9885 15.1867 46.1485 15.048L46.5005 16.504C46.2445 16.7067 45.9245 16.8667 45.5405 16.984C45.1565 17.1013 44.7512 17.16 44.3245 17.16C43.7912 17.16 43.3165 17.08 42.9005 16.92C42.4952 16.76 42.1752 16.504 41.9405 16.152C41.7165 15.8 41.6045 15.3307 41.6045 14.744V7.16L43.7965 6.552ZM46.3565 9V10.632H40.1325V9H46.3565ZM51.5515 17.16C50.7088 17.16 49.9728 16.9947 49.3435 16.664C48.7248 16.3333 48.2448 15.8587 47.9035 15.24C47.5622 14.6213 47.3915 13.8747 47.3915 13C47.3915 12.1253 47.5622 11.3787 47.9035 10.76C48.2448 10.1413 48.7195 9.66667 49.3275 9.336C49.9462 9.00533 50.6502 8.84 51.4395 8.84C52.2502 8.84 52.9382 9.00533 53.5035 9.336C54.0688 9.656 54.5008 10.0987 54.7995 10.664C55.0982 11.2187 55.2475 11.8533 55.2475 12.568C55.2475 12.7813 55.2422 12.984 55.2315 13.176C55.2208 13.368 55.2048 13.5387 55.1835 13.688H48.7995V12.168H54.2235L53.1675 12.552C53.1675 11.88 53.0128 11.3627 52.7035 11C52.4048 10.6373 51.9782 10.456 51.4235 10.456C51.0182 10.456 50.6662 10.552 50.3675 10.744C50.0795 10.936 49.8608 11.224 49.7115 11.608C49.5622 11.9813 49.4875 12.456 49.4875 13.032C49.4875 13.5973 49.5675 14.0667 49.7275 14.44C49.8982 14.8027 50.1328 15.0747 50.4315 15.256C50.7408 15.4373 51.1088 15.528 51.5355 15.528C52.0048 15.528 52.3835 15.4373 52.6715 15.256C52.9595 15.0747 53.1835 14.824 53.3435 14.504L55.0875 15.176C54.9168 15.592 54.6555 15.9493 54.3035 16.248C53.9622 16.5467 53.5515 16.776 53.0715 16.936C52.6022 17.0853 52.0955 17.16 51.5515 17.16ZM57.1051 17V9H59.0731L59.2011 11.4L58.9291 11.144C59.0571 10.6213 59.2598 10.1893 59.5371 9.848C59.8145 9.50667 60.1505 9.256 60.5451 9.096C60.9505 8.92533 61.3931 8.84 61.8731 8.84C62.4278 8.84 62.9185 8.94667 63.3451 9.16C63.7825 9.37333 64.1238 9.69867 64.3691 10.136C64.6251 10.5627 64.7531 11.1013 64.7531 11.752V17H62.5611V12.376C62.5611 11.6933 62.4278 11.224 62.1611 10.968C61.8945 10.7013 61.5478 10.568 61.1211 10.568C60.8225 10.568 60.5291 10.6427 60.2411 10.792C59.9638 10.9307 59.7345 11.16 59.5531 11.48C59.3825 11.8 59.2971 12.2267 59.2971 12.76V17H57.1051Z" fill="#1A2F5A"/>
<path d="M104.876 7.76L101.376 17H100.102L96.5883 7.76H97.7923L100.144 14.144L100.732 15.978L101.32 14.158L103.672 7.76H104.876ZM108.86 17.14C108.197 17.14 107.605 16.9953 107.082 16.706C106.569 16.4167 106.167 16.0013 105.878 15.46C105.589 14.9093 105.444 14.256 105.444 13.5C105.444 12.744 105.589 12.0953 105.878 11.554C106.167 11.0033 106.564 10.5833 107.068 10.294C107.572 10.0047 108.146 9.86 108.79 9.86C109.443 9.86 109.999 10 110.456 10.28C110.923 10.56 111.277 10.9427 111.52 11.428C111.763 11.904 111.884 12.4407 111.884 13.038C111.884 13.1967 111.879 13.3413 111.87 13.472C111.861 13.6027 111.847 13.7193 111.828 13.822H106.172V12.828H111.338L110.764 12.94C110.764 12.268 110.577 11.75 110.204 11.386C109.84 11.022 109.359 10.84 108.762 10.84C108.305 10.84 107.908 10.9473 107.572 11.162C107.245 11.3673 106.989 11.6707 106.802 12.072C106.625 12.464 106.536 12.94 106.536 13.5C106.536 14.0507 106.629 14.5267 106.816 14.928C107.003 15.3293 107.264 15.6373 107.6 15.852C107.945 16.0573 108.356 16.16 108.832 16.16C109.345 16.16 109.761 16.062 110.078 15.866C110.405 15.67 110.666 15.404 110.862 15.068L111.744 15.586C111.567 15.9033 111.338 16.1787 111.058 16.412C110.787 16.6453 110.465 16.8273 110.092 16.958C109.728 17.0793 109.317 17.14 108.86 17.14ZM114.014 17V10H114.924L115.078 11.148C115.274 10.7187 115.559 10.3967 115.932 10.182C116.315 9.96733 116.777 9.86 117.318 9.86C117.439 9.86 117.57 9.86933 117.71 9.888C117.859 9.90667 117.985 9.944 118.088 10L117.892 11.022C117.789 10.9847 117.677 10.9567 117.556 10.938C117.435 10.9193 117.262 10.91 117.038 10.91C116.749 10.91 116.455 10.994 116.156 11.162C115.867 11.33 115.624 11.5867 115.428 11.932C115.232 12.268 115.134 12.6973 115.134 13.22V17H114.014ZM120.289 8.656C120.037 8.656 119.831 8.58133 119.673 8.432C119.523 8.27333 119.449 8.068 119.449 7.816C119.449 7.564 119.523 7.36333 119.673 7.214C119.831 7.05533 120.037 6.976 120.289 6.976C120.541 6.976 120.741 7.05533 120.891 7.214C121.049 7.36333 121.129 7.564 121.129 7.816C121.129 8.068 121.049 8.27333 120.891 8.432C120.741 8.58133 120.541 8.656 120.289 8.656ZM120.849 10V17H119.729V10H120.849ZM126.29 6.71C126.532 6.71 126.761 6.738 126.976 6.794C127.19 6.85 127.358 6.92933 127.48 7.032L127.186 7.942C127.074 7.86733 126.952 7.816 126.822 7.788C126.691 7.75067 126.546 7.732 126.388 7.732C125.986 7.732 125.674 7.83 125.45 8.026C125.226 8.21267 125.114 8.516 125.114 8.936V10V10.364V17H123.994V8.824C123.994 8.516 124.04 8.23133 124.134 7.97C124.227 7.70867 124.367 7.48467 124.554 7.298C124.75 7.11133 124.992 6.96667 125.282 6.864C125.571 6.76133 125.907 6.71 126.29 6.71ZM127.452 10V10.966H122.594V10H127.452ZM129.51 8.656C129.258 8.656 129.052 8.58133 128.894 8.432C128.744 8.27333 128.67 8.068 128.67 7.816C128.67 7.564 128.744 7.36333 128.894 7.214C129.052 7.05533 129.258 6.976 129.51 6.976C129.762 6.976 129.962 7.05533 130.112 7.214C130.27 7.36333 130.35 7.564 130.35 7.816C130.35 8.068 130.27 8.27333 130.112 8.432C129.962 8.58133 129.762 8.656 129.51 8.656ZM130.07 10V17H128.95V10H130.07ZM135.602 17.14C134.939 17.14 134.347 16.9953 133.824 16.706C133.311 16.4167 132.909 16.0013 132.62 15.46C132.331 14.9093 132.186 14.256 132.186 13.5C132.186 12.744 132.331 12.0953 132.62 11.554C132.909 11.0033 133.306 10.5833 133.81 10.294C134.314 10.0047 134.888 9.86 135.532 9.86C136.185 9.86 136.741 10 137.198 10.28C137.665 10.56 138.019 10.9427 138.262 11.428C138.505 11.904 138.626 12.4407 138.626 13.038C138.626 13.1967 138.621 13.3413 138.612 13.472C138.603 13.6027 138.589 13.7193 138.57 13.822H132.914V12.828H138.08L137.506 12.94C137.506 12.268 137.319 11.75 136.946 11.386C136.582 11.022 136.101 10.84 135.504 10.84C135.047 10.84 134.65 10.9473 134.314 11.162C133.987 11.3673 133.731 11.6707 133.544 12.072C133.367 12.464 133.278 12.94 133.278 13.5C133.278 14.0507 133.371 14.5267 133.558 14.928C133.745 15.3293 134.006 15.6373 134.342 15.852C134.687 16.0573 135.098 16.16 135.574 16.16C136.087 16.16 136.503 16.062 136.82 15.866C137.147 15.67 137.408 15.404 137.604 15.068L138.486 15.586C138.309 15.9033 138.08 16.1787 137.8 16.412C137.529 16.6453 137.207 16.8273 136.834 16.958C136.47 17.0793 136.059 17.14 135.602 17.14ZM143.486 17.14C142.907 17.14 142.375 16.9953 141.89 16.706C141.405 16.4167 141.017 16.0013 140.728 15.46C140.439 14.9093 140.294 14.256 140.294 13.5C140.294 12.7253 140.448 12.0673 140.756 11.526C141.064 10.9847 141.47 10.574 141.974 10.294C142.478 10.0047 143.019 9.86 143.598 9.86C144.177 9.86 144.676 10.0093 145.096 10.308C145.525 10.6067 145.81 11.0033 145.95 11.498L145.81 11.596V6.78H146.93V17H145.95L145.852 15.306L146.006 15.222C145.941 15.6327 145.782 15.9827 145.53 16.272C145.287 16.552 144.984 16.7667 144.62 16.916C144.265 17.0653 143.887 17.14 143.486 17.14ZM143.598 16.16C144.046 16.16 144.433 16.048 144.76 15.824C145.096 15.6 145.353 15.2827 145.53 14.872C145.717 14.452 145.81 13.962 145.81 13.402C145.81 12.87 145.717 12.4127 145.53 12.03C145.353 11.6473 145.101 11.3533 144.774 11.148C144.457 10.9427 144.083 10.84 143.654 10.84C142.945 10.84 142.394 11.0827 142.002 11.568C141.61 12.0533 141.414 12.6973 141.414 13.5C141.414 14.3027 141.605 14.9467 141.988 15.432C142.371 15.9173 142.907 16.16 143.598 16.16ZM154.515 17V7.76H157.805C158.897 7.76 159.695 7.98867 160.199 8.446C160.703 8.90333 160.955 9.524 160.955 10.308C160.955 10.7747 160.82 11.1993 160.549 11.582C160.278 11.9553 159.896 12.1933 159.401 12.296V12.31C159.952 12.4127 160.386 12.6647 160.703 13.066C161.03 13.458 161.193 13.906 161.193 14.41C161.193 15.194 160.899 15.824 160.311 16.3C159.723 16.7667 158.883 17 157.791 17H154.515ZM155.635 15.95H158.057C158.72 15.95 159.21 15.8147 159.527 15.544C159.854 15.2733 160.017 14.8953 160.017 14.41C160.017 13.9153 159.854 13.5373 159.527 13.276C159.21 13.0053 158.72 12.87 158.057 12.87H155.635V15.95ZM155.635 11.82H157.819C159.126 11.82 159.779 11.316 159.779 10.308C159.779 9.30933 159.126 8.81 157.819 8.81H155.635V11.82ZM165.985 17.14C165.537 17.14 165.113 17.056 164.711 16.888C164.319 16.72 163.997 16.4493 163.745 16.076C163.503 15.6933 163.381 15.1987 163.381 14.592V10H164.501V14.298C164.501 15.0073 164.655 15.4973 164.963 15.768C165.271 16.0293 165.705 16.16 166.265 16.16C166.527 16.16 166.783 16.118 167.035 16.034C167.287 15.9407 167.511 15.8007 167.707 15.614C167.913 15.418 168.071 15.1707 168.183 14.872C168.305 14.5733 168.365 14.2187 168.365 13.808V10H169.485V17H168.505L168.435 15.936C168.193 16.356 167.861 16.664 167.441 16.86C167.031 17.0467 166.545 17.14 165.985 17.14ZM177.846 10L174.556 18.176C174.379 18.6333 174.183 18.9927 173.968 19.254C173.763 19.5247 173.529 19.716 173.268 19.828C173.016 19.9493 172.722 20.01 172.386 20.01C172.069 20.01 171.775 19.9633 171.504 19.87C171.243 19.786 171.009 19.6693 170.804 19.52L171.112 18.54C171.299 18.708 171.495 18.8293 171.7 18.904C171.915 18.988 172.125 19.03 172.33 19.03C172.573 19.03 172.801 18.9553 173.016 18.806C173.231 18.6567 173.427 18.3533 173.604 17.896L173.968 16.986L173.268 15.32L171.042 10H172.316L174.066 14.564L174.5 15.81L175.004 14.424L176.642 10H177.846ZM182.237 17.14C181.574 17.14 180.981 16.9953 180.459 16.706C179.945 16.4167 179.544 16.0013 179.255 15.46C178.965 14.9093 178.821 14.256 178.821 13.5C178.821 12.744 178.965 12.0953 179.255 11.554C179.544 11.0033 179.941 10.5833 180.445 10.294C180.949 10.0047 181.523 9.86 182.167 9.86C182.82 9.86 183.375 10 183.833 10.28C184.299 10.56 184.654 10.9427 184.897 11.428C185.139 11.904 185.261 12.4407 185.261 13.038C185.261 13.1967 185.256 13.3413 185.247 13.472C185.237 13.6027 185.223 13.7193 185.205 13.822H179.549V12.828H184.715L184.141 12.94C184.141 12.268 183.954 11.75 183.581 11.386C183.217 11.022 182.736 10.84 182.139 10.84C181.681 10.84 181.285 10.9473 180.949 11.162C180.622 11.3673 180.365 11.6707 180.179 12.072C180.001 12.464 179.913 12.94 179.913 13.5C179.913 14.0507 180.006 14.5267 180.193 14.928C180.379 15.3293 180.641 15.6373 180.977 15.852C181.322 16.0573 181.733 16.16 182.209 16.16C182.722 16.16 183.137 16.062 183.455 15.866C183.781 15.67 184.043 15.404 184.239 15.068L185.121 15.586C184.943 15.9033 184.715 16.1787 184.435 16.412C184.164 16.6453 183.842 16.8273 183.469 16.958C183.105 17.0793 182.694 17.14 182.237 17.14ZM187.391 17V10H188.301L188.455 11.148C188.651 10.7187 188.936 10.3967 189.309 10.182C189.692 9.96733 190.154 9.86 190.695 9.86C190.816 9.86 190.947 9.86933 191.087 9.888C191.236 9.90667 191.362 9.944 191.465 10L191.269 11.022C191.166 10.9847 191.054 10.9567 190.933 10.938C190.812 10.9193 190.639 10.91 190.415 10.91C190.126 10.91 189.832 10.994 189.533 11.162C189.244 11.33 189.001 11.5867 188.805 11.932C188.609 12.268 188.511 12.6973 188.511 13.22V17H187.391Z" fill="#5A87C6"/>
<path d="M82.5155 20.8758C82.8095 21.0266 83.1785 21.0256 83.4725 20.8749C91.4845 16.7424 92.0535 8.66856 92.0465 6.37286C92.0457 6.18835 91.9889 6.00806 91.8831 5.85406C91.7772 5.70007 91.6269 5.57906 91.4505 5.50585L83.4005 2.08198C83.2724 2.02776 83.1339 1.99984 82.9939 2C82.8539 2.00017 82.7155 2.02842 82.5875 2.08294L74.5935 5.50681C74.4197 5.58006 74.2715 5.69973 74.1665 5.85158C74.0616 6.00342 74.0043 6.18104 74.0015 6.36326C73.9675 8.64744 74.4465 16.7386 82.5155 20.8758ZM79.7015 9.87163L81.9945 12.0732L86.2875 7.95134L87.7015 9.30898L81.9945 14.7885L78.2875 11.2293L79.7015 9.87163Z" fill="#5A87C6"/>
</svg>
