<?xml version="1.0"?>
<svg xmlns="http://www.w3.org/2000/svg" width="530" height="67" viewBox="0 0 530 67" fill="none">
<rect width="530" height="67" fill="#D5DFEF"/>
<g clip-path="url(#clip0_1189_57)">
<path d="M38.0177 42.0542L39.4467 43.7508L39.9985 43.3026L38.537 41.3769L38.0177 42.0542Z" fill="#D5DFEF" stroke="#1A2F5A" stroke-width="0.5" stroke-miterlimit="10"/>
<path d="M40.6172 38.6639L42.6294 39.6L42.3398 40.2491L40.1008 39.3375L40.6172 38.6639Z" fill="#D5DFEF" stroke="#1A2F5A" stroke-width="0.5" stroke-miterlimit="10"/>
<path d="M40.805 39.4328L38.7654 42.0929C38.5188 42.4145 38.0652 42.4872 37.7211 42.2655L35.591 40.8845L38.8655 36.6539L40.7132 38.3951C41.0071 38.6744 41.0459 39.1188 40.805 39.4328Z" fill="#D5DFEF" stroke="#1A2F5A" stroke-width="0.5" stroke-miterlimit="10"/>
<path d="M25.5228 26.9219L23.0885 24.5567L22.6013 25.0724L25.0912 27.6605L25.5228 26.9219Z" fill="#D5DFEF" stroke="#1A2F5A" stroke-width="0.5" stroke-miterlimit="10"/>
<path d="M23.241 24.5654L22.6194 25.2004L22.0559 24.6182C22.0559 24.6182 22.1727 24.0588 22.6523 24.048L23.241 24.5654Z" fill="#D5DFEF" stroke="#1A2F5A" stroke-width="0.5" stroke-miterlimit="10"/>
<path d="M22.7579 30.5279L19.8391 28.7946L20.2135 28.1865L23.3562 29.9232L22.7579 30.5279Z" fill="#D5DFEF" stroke="#1A2F5A" stroke-width="0.5" stroke-miterlimit="10"/>
<path d="M19.8871 28.9395L20.339 28.1745L19.6305 27.7814C19.6305 27.7814 19.1244 28.0423 19.2384 28.5083L19.8909 28.9425L19.8871 28.9395Z" fill="#D5DFEF" stroke="#1A2F5A" stroke-width="0.5" stroke-miterlimit="10"/>
<path d="M36.6088 41.01L39.2711 37.6017C39.7391 36.9992 39.5574 36.0788 38.8674 35.5497C35.9755 33.3263 28.9021 27.9988 26.5413 27.2221C24.1843 26.4483 22.1403 26.0647 21.5253 26.8429C20.9663 27.5559 22.1293 29.6553 23.3988 31.512C25.1593 34.0935 31.7864 39.1089 34.5571 41.1552C35.2403 41.6611 36.1523 41.5973 36.6059 41.0137L36.6088 41.01Z" fill="#D5DFEF" stroke="#1A2F5A" stroke-width="0.5" stroke-miterlimit="10"/>
<path d="M39.2866 43.7362L39.9842 43.1775L40.4742 43.8237C40.4742 43.8237 40.2861 44.3644 39.8086 44.3167L39.2866 43.7362Z" fill="#D5DFEF" stroke="#1A2F5A" stroke-width="0.5" stroke-miterlimit="10"/>
<path d="M42.5524 39.4688L42.194 40.2875L42.9452 40.5931C42.9452 40.5931 43.4185 40.2711 43.2485 39.8223L42.5524 39.4688Z" fill="#D5DFEF" stroke="#1A2F5A" stroke-width="0.5" stroke-miterlimit="10"/>
</g>
<circle cx="31.5" cy="33.5" r="15.75" stroke="#1A2F5A" stroke-width="0.5"/>
<path d="M21.1006 44.7L41.1006 20.7" stroke="#1A2F5A" stroke-width="0.5"/>
<path d="M67.516 18.94V29.5H65.932L61.516 22.428L60.396 20.444H60.38L60.444 22.044V29.5H59.228V18.94H60.812L65.212 25.98L66.348 28.012H66.364L66.3 26.396V18.94H67.516ZM73.925 21.34C74.6823 21.34 75.349 21.5053 75.925 21.836C76.5117 22.1667 76.9703 22.6467 77.301 23.276C77.6317 23.8947 77.797 24.636 77.797 25.5C77.797 26.364 77.6317 27.1107 77.301 27.74C76.9703 28.3587 76.5117 28.8333 75.925 29.164C75.349 29.4947 74.6823 29.66 73.925 29.66C73.1783 29.66 72.5117 29.4947 71.925 29.164C71.3383 28.8333 70.8797 28.3587 70.549 27.74C70.2183 27.1107 70.053 26.364 70.053 25.5C70.053 24.636 70.2183 23.8947 70.549 23.276C70.8797 22.6467 71.3383 22.1667 71.925 21.836C72.5117 21.5053 73.1783 21.34 73.925 21.34ZM73.925 22.444C73.381 22.444 72.917 22.5667 72.533 22.812C72.149 23.0573 71.8503 23.4093 71.637 23.868C71.4343 24.316 71.333 24.86 71.333 25.5C71.333 26.1293 71.4343 26.6733 71.637 27.132C71.8503 27.5907 72.149 27.9427 72.533 28.188C72.917 28.4333 73.381 28.556 73.925 28.556C74.469 28.556 74.933 28.4333 75.317 28.188C75.701 27.9427 75.9943 27.5907 76.197 27.132C76.4103 26.6733 76.517 26.1293 76.517 25.5C76.517 24.86 76.4103 24.316 76.197 23.868C75.9943 23.4093 75.701 23.0573 75.317 22.812C74.933 22.5667 74.469 22.444 73.925 22.444ZM96.1079 18.94V29.5H94.8919V22.86L95.0359 20.076H95.0199L91.5479 29.5H90.4599L86.9879 20.076H86.9719L87.1159 22.86V29.5H85.8999V18.94H87.8679L90.1879 25.356L90.9879 27.996H91.0199L91.8359 25.372L94.1399 18.94H96.1079ZM102.503 21.34C103.26 21.34 103.927 21.5053 104.503 21.836C105.09 22.1667 105.548 22.6467 105.879 23.276C106.21 23.8947 106.375 24.636 106.375 25.5C106.375 26.364 106.21 27.1107 105.879 27.74C105.548 28.3587 105.09 28.8333 104.503 29.164C103.927 29.4947 103.26 29.66 102.503 29.66C101.756 29.66 101.09 29.4947 100.503 29.164C99.9165 28.8333 99.4578 28.3587 99.1271 27.74C98.7965 27.1107 98.6311 26.364 98.6311 25.5C98.6311 24.636 98.7965 23.8947 99.1271 23.276C99.4578 22.6467 99.9165 22.1667 100.503 21.836C101.09 21.5053 101.756 21.34 102.503 21.34ZM102.503 22.444C101.959 22.444 101.495 22.5667 101.111 22.812C100.727 23.0573 100.428 23.4093 100.215 23.868C100.012 24.316 99.9111 24.86 99.9111 25.5C99.9111 26.1293 100.012 26.6733 100.215 27.132C100.428 27.5907 100.727 27.9427 101.111 28.188C101.495 28.4333 101.959 28.556 102.503 28.556C103.047 28.556 103.511 28.4333 103.895 28.188C104.279 27.9427 104.572 27.5907 104.775 27.132C104.988 26.6733 105.095 26.1293 105.095 25.5C105.095 24.86 104.988 24.316 104.775 23.868C104.572 23.4093 104.279 23.0573 103.895 22.812C103.511 22.5667 103.047 22.444 102.503 22.444ZM108.785 29.5V21.5H109.825L110.001 22.812C110.225 22.3213 110.55 21.9533 110.977 21.708C111.414 21.4627 111.942 21.34 112.561 21.34C112.7 21.34 112.849 21.3507 113.009 21.372C113.18 21.3933 113.324 21.436 113.441 21.5L113.217 22.668C113.1 22.6253 112.972 22.5933 112.833 22.572C112.694 22.5507 112.497 22.54 112.241 22.54C111.91 22.54 111.574 22.636 111.233 22.828C110.902 23.02 110.625 23.3133 110.401 23.708C110.177 24.092 110.065 24.5827 110.065 25.18V29.5H108.785ZM118.41 29.66C117.653 29.66 116.975 29.4947 116.378 29.164C115.791 28.8333 115.333 28.3587 115.002 27.74C114.671 27.1107 114.506 26.364 114.506 25.5C114.506 24.636 114.671 23.8947 115.002 23.276C115.333 22.6467 115.786 22.1667 116.362 21.836C116.938 21.5053 117.594 21.34 118.33 21.34C119.077 21.34 119.711 21.5 120.234 21.82C120.767 22.14 121.173 22.5773 121.45 23.132C121.727 23.676 121.866 24.2893 121.866 24.972C121.866 25.1533 121.861 25.3187 121.85 25.468C121.839 25.6173 121.823 25.7507 121.802 25.868H115.338V24.732H121.242L120.586 24.86C120.586 24.092 120.373 23.5 119.946 23.084C119.53 22.668 118.981 22.46 118.298 22.46C117.775 22.46 117.322 22.5827 116.938 22.828C116.565 23.0627 116.271 23.4093 116.058 23.868C115.855 24.316 115.754 24.86 115.754 25.5C115.754 26.1293 115.861 26.6733 116.074 27.132C116.287 27.5907 116.586 27.9427 116.97 28.188C117.365 28.4227 117.834 28.54 118.378 28.54C118.965 28.54 119.439 28.428 119.802 28.204C120.175 27.98 120.474 27.676 120.698 27.292L121.706 27.884C121.503 28.2467 121.242 28.5613 120.922 28.828C120.613 29.0947 120.245 29.3027 119.818 29.452C119.402 29.5907 118.933 29.66 118.41 29.66ZM59.228 48.5V37.94H62.988C64.236 37.94 65.148 38.2013 65.724 38.724C66.3 39.2467 66.588 39.956 66.588 40.852C66.588 41.3853 66.4333 41.8707 66.124 42.308C65.8147 42.7347 65.3773 43.0067 64.812 43.124V43.14C65.4413 43.2573 65.9373 43.5453 66.3 44.004C66.6733 44.452 66.86 44.964 66.86 45.54C66.86 46.436 66.524 47.156 65.852 47.7C65.18 48.2333 64.22 48.5 62.972 48.5H59.228ZM60.508 47.3H63.276C64.0333 47.3 64.5933 47.1453 64.956 46.836C65.3293 46.5267 65.516 46.0947 65.516 45.54C65.516 44.9747 65.3293 44.5427 64.956 44.244C64.5933 43.9347 64.0333 43.78 63.276 43.78H60.508V47.3ZM60.508 42.58H63.004C64.4973 42.58 65.244 42.004 65.244 40.852C65.244 39.7107 64.4973 39.14 63.004 39.14H60.508V42.58ZM72.7531 40.34C73.5105 40.34 74.1771 40.5053 74.7531 40.836C75.3398 41.1667 75.7985 41.6467 76.1291 42.276C76.4598 42.8947 76.6251 43.636 76.6251 44.5C76.6251 45.364 76.4598 46.1107 76.1291 46.74C75.7985 47.3587 75.3398 47.8333 74.7531 48.164C74.1771 48.4947 73.5105 48.66 72.7531 48.66C72.0065 48.66 71.3398 48.4947 70.7531 48.164C70.1665 47.8333 69.7078 47.3587 69.3771 46.74C69.0465 46.1107 68.8811 45.364 68.8811 44.5C68.8811 43.636 69.0465 42.8947 69.3771 42.276C69.7078 41.6467 70.1665 41.1667 70.7531 40.836C71.3398 40.5053 72.0065 40.34 72.7531 40.34ZM72.7531 41.444C72.2091 41.444 71.7451 41.5667 71.3611 41.812C70.9771 42.0573 70.6785 42.4093 70.4651 42.868C70.2625 43.316 70.1611 43.86 70.1611 44.5C70.1611 45.1293 70.2625 45.6733 70.4651 46.132C70.6785 46.5907 70.9771 46.9427 71.3611 47.188C71.7451 47.4333 72.2091 47.556 72.7531 47.556C73.2971 47.556 73.7611 47.4333 74.1451 47.188C74.5291 46.9427 74.8225 46.5907 75.0251 46.132C75.2385 45.6733 75.3451 45.1293 75.3451 44.5C75.3451 43.86 75.2385 43.316 75.0251 42.868C74.8225 42.4093 74.5291 42.0573 74.1451 41.812C73.7611 41.5667 73.2971 41.444 72.7531 41.444ZM83.7069 43.332C83.7069 42.7347 83.5469 42.276 83.2269 41.956C82.9069 41.6253 82.4535 41.46 81.8669 41.46C81.3122 41.46 80.8429 41.5827 80.4589 41.828C80.0749 42.0627 79.7922 42.4467 79.6109 42.98L78.5709 42.34C78.7842 41.7427 79.1789 41.2627 79.7549 40.9C80.3309 40.5267 81.0455 40.34 81.8989 40.34C82.4749 40.34 82.9975 40.4413 83.4669 40.644C83.9362 40.836 84.3042 41.1347 84.5709 41.54C84.8482 41.9347 84.9869 42.4467 84.9869 43.076V46.948C84.9869 47.332 85.1895 47.524 85.5949 47.524C85.7975 47.524 85.9949 47.4973 86.1869 47.444L86.1229 48.452C85.9095 48.5587 85.6322 48.612 85.2909 48.612C84.9815 48.612 84.7042 48.5533 84.4589 48.436C84.2135 48.3187 84.0215 48.1427 83.8829 47.908C83.7442 47.6627 83.6749 47.3587 83.6749 46.996V46.836L83.9949 46.884C83.8669 47.3 83.6482 47.6413 83.3389 47.908C83.0295 48.164 82.6829 48.356 82.2989 48.484C81.9149 48.6013 81.5362 48.66 81.1629 48.66C80.6935 48.66 80.2562 48.58 79.8509 48.42C79.4455 48.26 79.1202 48.02 78.8749 47.7C78.6402 47.3693 78.5229 46.964 78.5229 46.484C78.5229 45.8867 78.7202 45.396 79.1149 45.012C79.5202 44.6173 80.0802 44.3507 80.7949 44.212L83.9629 43.588V44.644L81.3869 45.172C80.8642 45.2787 80.4749 45.428 80.2189 45.62C79.9629 45.812 79.8349 46.0787 79.8349 46.42C79.8349 46.7507 79.9629 47.0227 80.2189 47.236C80.4855 47.4387 80.8589 47.54 81.3389 47.54C81.6482 47.54 81.9415 47.5027 82.2189 47.428C82.5069 47.3427 82.7629 47.22 82.9869 47.06C83.2109 46.8893 83.3869 46.6813 83.5149 46.436C83.6429 46.18 83.7069 45.8813 83.7069 45.54V43.332ZM88.0974 48.5V40.5H89.1374L89.3134 41.812C89.5374 41.3213 89.8627 40.9533 90.2894 40.708C90.7267 40.4627 91.2547 40.34 91.8734 40.34C92.012 40.34 92.1614 40.3507 92.3214 40.372C92.492 40.3933 92.636 40.436 92.7534 40.5L92.5294 41.668C92.412 41.6253 92.284 41.5933 92.1454 41.572C92.0067 41.5507 91.8094 41.54 91.5534 41.54C91.2227 41.54 90.8867 41.636 90.5454 41.828C90.2147 42.02 89.9374 42.3133 89.7134 42.708C89.4894 43.092 89.3774 43.5827 89.3774 44.18V48.5H88.0974ZM97.4986 48.66C96.8373 48.66 96.2293 48.4947 95.6746 48.164C95.12 47.8333 94.6773 47.3587 94.3466 46.74C94.016 46.1107 93.8506 45.364 93.8506 44.5C93.8506 43.6147 94.0266 42.8627 94.3786 42.244C94.7306 41.6253 95.1946 41.156 95.7706 40.836C96.3466 40.5053 96.9653 40.34 97.6266 40.34C98.288 40.34 98.8586 40.5107 99.3386 40.852C99.8293 41.1933 100.155 41.6467 100.315 42.212L100.155 42.324V36.82H101.435V48.5H100.315L100.203 46.564L100.379 46.468C100.304 46.9373 100.123 47.3373 99.8346 47.668C99.5573 47.988 99.2106 48.2333 98.7946 48.404C98.3893 48.5747 97.9573 48.66 97.4986 48.66ZM97.6266 47.54C98.1386 47.54 98.5813 47.412 98.9546 47.156C99.3386 46.9 99.632 46.5373 99.8346 46.068C100.048 45.588 100.155 45.028 100.155 44.388C100.155 43.78 100.048 43.2573 99.8346 42.82C99.632 42.3827 99.344 42.0467 98.9706 41.812C98.608 41.5773 98.1813 41.46 97.6906 41.46C96.88 41.46 96.2506 41.7373 95.8026 42.292C95.3546 42.8467 95.1306 43.5827 95.1306 44.5C95.1306 45.4173 95.3493 46.1533 95.7866 46.708C96.224 47.2627 96.8373 47.54 97.6266 47.54ZM107.29 48.66C106.511 48.66 105.791 48.4947 105.13 48.164C104.479 47.8333 103.978 47.364 103.626 46.756L104.714 45.972C104.949 46.4627 105.29 46.8467 105.738 47.124C106.197 47.4013 106.746 47.54 107.386 47.54C107.951 47.54 108.394 47.4333 108.714 47.22C109.034 46.996 109.194 46.708 109.194 46.356C109.194 46.132 109.119 45.9293 108.97 45.748C108.831 45.556 108.559 45.4173 108.154 45.332L106.234 44.932C105.455 44.772 104.895 44.5053 104.554 44.132C104.223 43.7587 104.058 43.2947 104.058 42.74C104.058 42.3027 104.181 41.9027 104.426 41.54C104.682 41.1773 105.039 40.8893 105.498 40.676C105.967 40.452 106.517 40.34 107.146 40.34C107.935 40.34 108.602 40.4947 109.146 40.804C109.69 41.1133 110.095 41.5507 110.362 42.116L109.29 42.82C109.109 42.3507 108.815 42.0093 108.41 41.796C108.005 41.572 107.583 41.46 107.146 41.46C106.762 41.46 106.431 41.5133 106.154 41.62C105.887 41.7267 105.679 41.876 105.53 42.068C105.391 42.2493 105.322 42.4573 105.322 42.692C105.322 42.9267 105.402 43.1453 105.562 43.348C105.722 43.54 106.021 43.6787 106.458 43.764L108.458 44.18C109.205 44.3293 109.727 44.5747 110.026 44.916C110.325 45.2573 110.474 45.6733 110.474 46.164C110.474 46.6653 110.341 47.108 110.074 47.492C109.807 47.8653 109.434 48.1533 108.954 48.356C108.474 48.5587 107.919 48.66 107.29 48.66Z" fill="#1A2F5A"/>
<circle cx="211.5" cy="33.5" r="15.75" stroke="#1A2F5A" stroke-width="0.5"/>
<path d="M201.1 44.7L221.1 20.7" stroke="#1A2F5A" stroke-width="0.5"/>
<path d="M216 28.6336C216.658 27.6635 217.382 26.5457 217.736 24.8056C218.089 26.5457 218.813 27.6635 219.471 28.6336C219.498 28.6734 219.525 28.7129 219.552 28.7522C220.266 29.8035 220.85 30.6632 220.85 32.0125C220.85 33.7059 219.426 35.0896 217.736 35.0896C216.045 35.0896 214.621 33.7059 214.621 32.0125C214.621 30.6632 215.205 29.8035 215.919 28.7522C215.946 28.7129 215.973 28.6734 216 28.6336ZM205.265 24.8056C205.618 26.5457 206.343 27.6635 207.001 28.6336C207.028 28.6734 207.055 28.7129 207.081 28.7522C207.796 29.8035 208.38 30.6632 208.38 32.0125C208.38 33.7059 206.956 35.0896 205.265 35.0896C203.574 35.0896 202.15 33.7059 202.15 32.0125C202.15 30.6626 202.735 29.8028 203.449 28.7515C203.476 28.7124 203.503 28.6729 203.53 28.6332C204.188 27.6632 204.912 26.5457 205.265 24.8056ZM208.384 41.3728C208.384 40.0235 208.969 39.1639 209.683 38.1126C209.71 38.0733 209.737 38.0338 209.764 37.9939C210.422 37.0233 211.147 35.905 211.5 34.1634C211.853 35.905 212.577 37.0233 213.236 37.9939C213.263 38.0338 213.29 38.0733 213.316 38.1126C214.031 39.1639 214.615 40.0235 214.615 41.3728C214.615 43.0662 213.191 44.4499 211.5 44.4499C209.809 44.4499 208.384 43.0671 208.384 41.3728Z" stroke="#1A2F5A" stroke-width="0.5"/>
<path d="M245.516 18.94V29.5H243.932L239.516 22.428L238.396 20.444H238.38L238.444 22.044V29.5H237.228V18.94H238.812L243.212 25.98L244.348 28.012H244.364L244.3 26.396V18.94H245.516ZM251.925 21.34C252.682 21.34 253.349 21.5053 253.925 21.836C254.512 22.1667 254.97 22.6467 255.301 23.276C255.632 23.8947 255.797 24.636 255.797 25.5C255.797 26.364 255.632 27.1107 255.301 27.74C254.97 28.3587 254.512 28.8333 253.925 29.164C253.349 29.4947 252.682 29.66 251.925 29.66C251.178 29.66 250.512 29.4947 249.925 29.164C249.338 28.8333 248.88 28.3587 248.549 27.74C248.218 27.1107 248.053 26.364 248.053 25.5C248.053 24.636 248.218 23.8947 248.549 23.276C248.88 22.6467 249.338 22.1667 249.925 21.836C250.512 21.5053 251.178 21.34 251.925 21.34ZM251.925 22.444C251.381 22.444 250.917 22.5667 250.533 22.812C250.149 23.0573 249.85 23.4093 249.637 23.868C249.434 24.316 249.333 24.86 249.333 25.5C249.333 26.1293 249.434 26.6733 249.637 27.132C249.85 27.5907 250.149 27.9427 250.533 28.188C250.917 28.4333 251.381 28.556 251.925 28.556C252.469 28.556 252.933 28.4333 253.317 28.188C253.701 27.9427 253.994 27.5907 254.197 27.132C254.41 26.6733 254.517 26.1293 254.517 25.5C254.517 24.86 254.41 24.316 254.197 23.868C253.994 23.4093 253.701 23.0573 253.317 22.812C252.933 22.5667 252.469 22.444 251.925 22.444ZM274.108 18.94V29.5H272.892V22.86L273.036 20.076H273.02L269.548 29.5H268.46L264.988 20.076H264.972L265.116 22.86V29.5H263.9V18.94H265.868L268.188 25.356L268.988 27.996H269.02L269.836 25.372L272.14 18.94H274.108ZM280.503 21.34C281.26 21.34 281.927 21.5053 282.503 21.836C283.09 22.1667 283.548 22.6467 283.879 23.276C284.21 23.8947 284.375 24.636 284.375 25.5C284.375 26.364 284.21 27.1107 283.879 27.74C283.548 28.3587 283.09 28.8333 282.503 29.164C281.927 29.4947 281.26 29.66 280.503 29.66C279.756 29.66 279.09 29.4947 278.503 29.164C277.916 28.8333 277.458 28.3587 277.127 27.74C276.796 27.1107 276.631 26.364 276.631 25.5C276.631 24.636 276.796 23.8947 277.127 23.276C277.458 22.6467 277.916 22.1667 278.503 21.836C279.09 21.5053 279.756 21.34 280.503 21.34ZM280.503 22.444C279.959 22.444 279.495 22.5667 279.111 22.812C278.727 23.0573 278.428 23.4093 278.215 23.868C278.012 24.316 277.911 24.86 277.911 25.5C277.911 26.1293 278.012 26.6733 278.215 27.132C278.428 27.5907 278.727 27.9427 279.111 28.188C279.495 28.4333 279.959 28.556 280.503 28.556C281.047 28.556 281.511 28.4333 281.895 28.188C282.279 27.9427 282.572 27.5907 282.775 27.132C282.988 26.6733 283.095 26.1293 283.095 25.5C283.095 24.86 282.988 24.316 282.775 23.868C282.572 23.4093 282.279 23.0573 281.895 22.812C281.511 22.5667 281.047 22.444 280.503 22.444ZM286.785 29.5V21.5H287.825L288.001 22.812C288.225 22.3213 288.55 21.9533 288.977 21.708C289.414 21.4627 289.942 21.34 290.561 21.34C290.7 21.34 290.849 21.3507 291.009 21.372C291.18 21.3933 291.324 21.436 291.441 21.5L291.217 22.668C291.1 22.6253 290.972 22.5933 290.833 22.572C290.694 22.5507 290.497 22.54 290.241 22.54C289.91 22.54 289.574 22.636 289.233 22.828C288.902 23.02 288.625 23.3133 288.401 23.708C288.177 24.092 288.065 24.5827 288.065 25.18V29.5H286.785ZM296.41 29.66C295.653 29.66 294.975 29.4947 294.378 29.164C293.791 28.8333 293.333 28.3587 293.002 27.74C292.671 27.1107 292.506 26.364 292.506 25.5C292.506 24.636 292.671 23.8947 293.002 23.276C293.333 22.6467 293.786 22.1667 294.362 21.836C294.938 21.5053 295.594 21.34 296.33 21.34C297.077 21.34 297.711 21.5 298.234 21.82C298.767 22.14 299.173 22.5773 299.45 23.132C299.727 23.676 299.866 24.2893 299.866 24.972C299.866 25.1533 299.861 25.3187 299.85 25.468C299.839 25.6173 299.823 25.7507 299.802 25.868H293.338V24.732H299.242L298.586 24.86C298.586 24.092 298.373 23.5 297.946 23.084C297.53 22.668 296.981 22.46 296.298 22.46C295.775 22.46 295.322 22.5827 294.938 22.828C294.565 23.0627 294.271 23.4093 294.058 23.868C293.855 24.316 293.754 24.86 293.754 25.5C293.754 26.1293 293.861 26.6733 294.074 27.132C294.287 27.5907 294.586 27.9427 294.97 28.188C295.365 28.4227 295.834 28.54 296.378 28.54C296.965 28.54 297.439 28.428 297.802 28.204C298.175 27.98 298.474 27.676 298.698 27.292L299.706 27.884C299.503 28.2467 299.242 28.5613 298.922 28.828C298.613 29.0947 298.245 29.3027 297.818 29.452C297.402 29.5907 296.933 29.66 296.41 29.66ZM238.508 47.3H244.556V48.5H237.228V37.94H238.508V47.3ZM249.66 48.66C248.903 48.66 248.225 48.4947 247.628 48.164C247.041 47.8333 246.583 47.3587 246.252 46.74C245.921 46.1107 245.756 45.364 245.756 44.5C245.756 43.636 245.921 42.8947 246.252 42.276C246.583 41.6467 247.036 41.1667 247.612 40.836C248.188 40.5053 248.844 40.34 249.58 40.34C250.327 40.34 250.961 40.5 251.484 40.82C252.017 41.14 252.423 41.5773 252.7 42.132C252.977 42.676 253.116 43.2893 253.116 43.972C253.116 44.1533 253.111 44.3187 253.1 44.468C253.089 44.6173 253.073 44.7507 253.052 44.868H246.588V43.732H252.492L251.836 43.86C251.836 43.092 251.623 42.5 251.196 42.084C250.78 41.668 250.231 41.46 249.548 41.46C249.025 41.46 248.572 41.5827 248.188 41.828C247.815 42.0627 247.521 42.4093 247.308 42.868C247.105 43.316 247.004 43.86 247.004 44.5C247.004 45.1293 247.111 45.6733 247.324 46.132C247.537 46.5907 247.836 46.9427 248.22 47.188C248.615 47.4227 249.084 47.54 249.628 47.54C250.215 47.54 250.689 47.428 251.052 47.204C251.425 46.98 251.724 46.676 251.948 46.292L252.956 46.884C252.753 47.2467 252.492 47.5613 252.172 47.828C251.863 48.0947 251.495 48.3027 251.068 48.452C250.652 48.5907 250.183 48.66 249.66 48.66ZM260.223 43.332C260.223 42.7347 260.063 42.276 259.743 41.956C259.423 41.6253 258.969 41.46 258.383 41.46C257.828 41.46 257.359 41.5827 256.975 41.828C256.591 42.0627 256.308 42.4467 256.127 42.98L255.087 42.34C255.3 41.7427 255.695 41.2627 256.271 40.9C256.847 40.5267 257.561 40.34 258.415 40.34C258.991 40.34 259.513 40.4413 259.983 40.644C260.452 40.836 260.82 41.1347 261.087 41.54C261.364 41.9347 261.503 42.4467 261.503 43.076V46.948C261.503 47.332 261.705 47.524 262.111 47.524C262.313 47.524 262.511 47.4973 262.703 47.444L262.639 48.452C262.425 48.5587 262.148 48.612 261.807 48.612C261.497 48.612 261.22 48.5533 260.975 48.436C260.729 48.3187 260.537 48.1427 260.399 47.908C260.26 47.6627 260.191 47.3587 260.191 46.996V46.836L260.511 46.884C260.383 47.3 260.164 47.6413 259.855 47.908C259.545 48.164 259.199 48.356 258.815 48.484C258.431 48.6013 258.052 48.66 257.679 48.66C257.209 48.66 256.772 48.58 256.367 48.42C255.961 48.26 255.636 48.02 255.391 47.7C255.156 47.3693 255.039 46.964 255.039 46.484C255.039 45.8867 255.236 45.396 255.631 45.012C256.036 44.6173 256.596 44.3507 257.311 44.212L260.479 43.588V44.644L257.903 45.172C257.38 45.2787 256.991 45.428 256.735 45.62C256.479 45.812 256.351 46.0787 256.351 46.42C256.351 46.7507 256.479 47.0227 256.735 47.236C257.001 47.4387 257.375 47.54 257.855 47.54C258.164 47.54 258.457 47.5027 258.735 47.428C259.023 47.3427 259.279 47.22 259.503 47.06C259.727 46.8893 259.903 46.6813 260.031 46.436C260.159 46.18 260.223 45.8813 260.223 45.54V43.332ZM271.637 40.5L268.181 43.956L267.877 44.26L265.253 46.884V45.284L270.021 40.5H271.637ZM265.893 36.82V48.5H264.613V36.82H265.893ZM268.293 43.3L271.829 48.5H270.277L267.221 44.02L268.293 43.3ZM278.207 43.332C278.207 42.7347 278.047 42.276 277.727 41.956C277.407 41.6253 276.954 41.46 276.367 41.46C275.812 41.46 275.343 41.5827 274.959 41.828C274.575 42.0627 274.292 42.4467 274.111 42.98L273.071 42.34C273.284 41.7427 273.679 41.2627 274.255 40.9C274.831 40.5267 275.546 40.34 276.399 40.34C276.975 40.34 277.498 40.4413 277.967 40.644C278.436 40.836 278.804 41.1347 279.071 41.54C279.348 41.9347 279.487 42.4467 279.487 43.076V46.948C279.487 47.332 279.69 47.524 280.095 47.524C280.298 47.524 280.495 47.4973 280.687 47.444L280.623 48.452C280.41 48.5587 280.132 48.612 279.791 48.612C279.482 48.612 279.204 48.5533 278.959 48.436C278.714 48.3187 278.522 48.1427 278.383 47.908C278.244 47.6627 278.175 47.3587 278.175 46.996V46.836L278.495 46.884C278.367 47.3 278.148 47.6413 277.839 47.908C277.53 48.164 277.183 48.356 276.799 48.484C276.415 48.6013 276.036 48.66 275.663 48.66C275.194 48.66 274.756 48.58 274.351 48.42C273.946 48.26 273.62 48.02 273.375 47.7C273.14 47.3693 273.023 46.964 273.023 46.484C273.023 45.8867 273.22 45.396 273.615 45.012C274.02 44.6173 274.58 44.3507 275.295 44.212L278.463 43.588V44.644L275.887 45.172C275.364 45.2787 274.975 45.428 274.719 45.62C274.463 45.812 274.335 46.0787 274.335 46.42C274.335 46.7507 274.463 47.0227 274.719 47.236C274.986 47.4387 275.359 47.54 275.839 47.54C276.148 47.54 276.442 47.5027 276.719 47.428C277.007 47.3427 277.263 47.22 277.487 47.06C277.711 46.8893 277.887 46.6813 278.015 46.436C278.143 46.18 278.207 45.8813 278.207 45.54V43.332ZM289.333 39.028L289.621 40.164C289.611 40.164 289.595 40.164 289.573 40.164C289.552 40.164 289.531 40.164 289.509 40.164C288.987 40.164 288.581 40.2707 288.293 40.484C288.016 40.6867 287.877 41.0173 287.877 41.476L287.093 41.076C287.093 40.66 287.189 40.2973 287.381 39.988C287.573 39.6787 287.835 39.444 288.165 39.284C288.496 39.1133 288.859 39.028 289.253 39.028C289.264 39.028 289.275 39.028 289.285 39.028C289.307 39.028 289.323 39.028 289.333 39.028ZM286.901 47.476C287.659 47.476 288.251 47.652 288.677 48.004C289.104 48.3453 289.317 48.804 289.317 49.38C289.317 49.9027 289.141 50.356 288.789 50.74C288.448 51.124 287.984 51.4173 287.397 51.62C286.821 51.8333 286.171 51.94 285.445 51.94C284.187 51.94 283.243 51.7267 282.613 51.3C281.995 50.8733 281.685 50.3613 281.685 49.764C281.685 49.3373 281.824 48.9533 282.101 48.612C282.389 48.2813 282.869 48.0947 283.541 48.052L283.429 48.292C283.067 48.196 282.757 48.036 282.501 47.812C282.256 47.5773 282.133 47.2413 282.133 46.804C282.133 46.3667 282.293 45.9933 282.613 45.684C282.944 45.364 283.429 45.1667 284.069 45.092L284.917 45.524H284.757C284.235 45.5773 283.861 45.7107 283.637 45.924C283.424 46.1267 283.317 46.3507 283.317 46.596C283.317 46.8947 283.424 47.1187 283.637 47.268C283.861 47.4067 284.171 47.476 284.565 47.476H286.901ZM285.429 50.868C286.048 50.868 286.555 50.804 286.949 50.676C287.355 50.548 287.653 50.3827 287.845 50.18C288.037 49.9773 288.133 49.7587 288.133 49.524C288.133 49.236 288.016 49.0067 287.781 48.836C287.557 48.6653 287.147 48.58 286.549 48.58H284.085C283.744 48.58 283.456 48.6653 283.221 48.836C282.987 49.0173 282.869 49.2627 282.869 49.572C282.869 49.9667 283.093 50.2813 283.541 50.516C284 50.7507 284.629 50.868 285.429 50.868ZM285.317 40.34C285.957 40.34 286.523 40.4573 287.013 40.692C287.515 40.916 287.904 41.2307 288.181 41.636C288.459 42.0413 288.597 42.5107 288.597 43.044C288.597 43.5667 288.459 44.036 288.181 44.452C287.904 44.8573 287.515 45.1773 287.013 45.412C286.523 45.636 285.957 45.748 285.317 45.748C284.261 45.748 283.451 45.4973 282.885 44.996C282.32 44.484 282.037 43.8333 282.037 43.044C282.037 42.5107 282.176 42.0413 282.453 41.636C282.741 41.2307 283.131 40.916 283.621 40.692C284.112 40.4573 284.677 40.34 285.317 40.34ZM285.317 41.38C284.763 41.38 284.299 41.5347 283.925 41.844C283.552 42.1427 283.365 42.5427 283.365 43.044C283.365 43.5347 283.552 43.9347 283.925 44.244C284.299 44.5533 284.763 44.708 285.317 44.708C285.872 44.708 286.336 44.5533 286.709 44.244C287.083 43.9347 287.269 43.5347 287.269 43.044C287.269 42.5427 287.083 42.1427 286.709 41.844C286.336 41.5347 285.872 41.38 285.317 41.38ZM294.457 48.66C293.7 48.66 293.022 48.4947 292.425 48.164C291.838 47.8333 291.38 47.3587 291.049 46.74C290.718 46.1107 290.553 45.364 290.553 44.5C290.553 43.636 290.718 42.8947 291.049 42.276C291.38 41.6467 291.833 41.1667 292.409 40.836C292.985 40.5053 293.641 40.34 294.377 40.34C295.124 40.34 295.758 40.5 296.281 40.82C296.814 41.14 297.22 41.5773 297.497 42.132C297.774 42.676 297.913 43.2893 297.913 43.972C297.913 44.1533 297.908 44.3187 297.897 44.468C297.886 44.6173 297.87 44.7507 297.849 44.868H291.385V43.732H297.289L296.633 43.86C296.633 43.092 296.42 42.5 295.993 42.084C295.577 41.668 295.028 41.46 294.345 41.46C293.822 41.46 293.369 41.5827 292.985 41.828C292.612 42.0627 292.318 42.4093 292.105 42.868C291.902 43.316 291.801 43.86 291.801 44.5C291.801 45.1293 291.908 45.6733 292.121 46.132C292.334 46.5907 292.633 46.9427 293.017 47.188C293.412 47.4227 293.881 47.54 294.425 47.54C295.012 47.54 295.486 47.428 295.849 47.204C296.222 46.98 296.521 46.676 296.745 46.292L297.753 46.884C297.55 47.2467 297.289 47.5613 296.969 47.828C296.66 48.0947 296.292 48.3027 295.865 48.452C295.449 48.5907 294.98 48.66 294.457 48.66Z" fill="#1A2F5A"/>
<path d="M405.25 33.5C405.25 41.4819 398.218 47.9869 389.5 47.9869C380.782 47.9869 373.75 41.4819 373.75 33.5C373.75 25.5181 380.782 19.0132 389.5 19.0132C398.218 19.0132 405.25 25.5181 405.25 33.5Z" stroke="#1A2F5A" stroke-width="0.5"/>
<path d="M378.751 44.0921L399.1 21.7106" stroke="#1A2F5A" stroke-width="0.5"/>
<g clip-path="url(#clip1_1189_57)">
<path d="M396.524 43.6315H386.961C385.248 43.6293 383.606 42.9938 382.395 41.8643C381.184 40.7348 380.502 39.2034 380.5 37.6061V27.7861C380.5 27.5451 380.603 27.314 380.786 27.1436C380.969 26.9732 381.216 26.8773 381.475 26.8769H383.662C383.697 26.8769 383.73 26.8897 383.755 26.9126C383.779 26.9355 383.793 26.9666 383.793 26.9989C383.793 27.0313 383.779 27.0623 383.755 27.0852C383.73 27.1081 383.697 27.121 383.662 27.121H381.475C381.286 27.1212 381.105 27.1913 380.971 27.316C380.837 27.4407 380.762 27.6097 380.762 27.7861V37.6038C380.763 39.1368 381.417 40.6066 382.579 41.6909C383.742 42.7751 385.317 43.3853 386.961 43.3875H396.523C396.712 43.3873 396.893 43.3171 397.027 43.1922C397.161 43.0674 397.236 42.8982 397.237 42.7216V27.7861C397.236 27.6096 397.161 27.4404 397.027 27.3157C396.893 27.191 396.712 27.121 396.523 27.121H394.314C394.28 27.121 394.246 27.1081 394.222 27.0852C394.197 27.0623 394.183 27.0313 394.183 26.9989C394.183 26.9666 394.197 26.9355 394.222 26.9126C394.246 26.8897 394.28 26.8769 394.314 26.8769H396.523C396.781 26.8771 397.029 26.9729 397.212 27.1434C397.395 27.3138 397.498 27.5449 397.498 27.7861V42.7216C397.498 42.9626 397.396 43.1937 397.213 43.3643C397.03 43.5348 396.783 43.6309 396.524 43.6315Z" fill="#1A2F5A"/>
<path d="M389.07 30.2703H388.808V43.5721H389.07V30.2703Z" fill="#1A2F5A"/>
<path d="M393.872 33.0329L388.893 30.4572L384.327 32.8819L384.273 32.7499C383.898 31.7663 383.635 30.7485 383.489 29.7135C383.19 27.5078 383.612 25.8 384.716 24.7757C385.66 23.8909 387.093 23.3921 388.747 23.3685C390.198 23.3487 391.338 23.5561 392.236 24.0008C393.572 24.6628 394.109 25.9076 394.457 27.0311C394.784 28.0989 394.838 29.2788 394.611 30.5464C394.462 31.3502 394.232 32.139 393.925 32.9025L393.872 33.0329ZM388.89 30.1773L393.732 32.6813C394.008 31.9754 394.216 31.248 394.353 30.5075C394.574 29.2765 394.524 28.1301 394.205 27.1005C393.872 26.0227 393.363 24.8367 392.114 24.2182C391.255 23.7926 390.151 23.5973 388.751 23.6141C387.165 23.6347 385.796 24.1083 384.897 24.9473C382.598 27.0906 384.153 31.6829 384.466 32.5272L388.89 30.1773Z" fill="#1A2F5A"/>
<path d="M388.755 30.3702C387.809 29.6372 386.831 28.8783 386.068 27.9447C385.465 27.2026 384.76 26.0303 384.81 24.665L385.072 24.6742C385.021 25.9708 385.699 27.0874 386.277 27.8013C387.021 28.7074 387.988 29.458 388.924 30.1833L388.755 30.3702Z" fill="#1A2F5A"/>
<path d="M389.012 30.3702L388.849 30.1834C389.78 29.458 390.747 28.7075 391.491 27.7922C392.069 27.0814 392.747 25.9617 392.696 24.6651L392.957 24.6559C393.011 26.022 392.303 27.1943 391.699 27.9356C390.937 28.8784 389.959 29.6373 389.012 30.3702Z" fill="#1A2F5A"/>
<path d="M385.735 26.9319L385.606 26.7198C387.593 25.6642 390.113 25.6406 392.347 26.6557L392.23 26.8769C390.074 25.8953 387.645 25.9167 385.735 26.9319Z" fill="#1A2F5A"/>
<path d="M395.43 35.6749H391.46C391.442 35.6762 391.424 35.6741 391.407 35.6686C391.39 35.6631 391.374 35.6543 391.361 35.6429C391.347 35.6315 391.337 35.6176 391.33 35.6022C391.322 35.5867 391.319 35.5701 391.319 35.5532C391.319 35.5364 391.322 35.5198 391.33 35.5043C391.337 35.4889 391.347 35.475 391.361 35.4636C391.374 35.4522 391.39 35.4434 391.407 35.4379C391.424 35.4324 391.442 35.4303 391.46 35.4316H395.427C395.445 35.4303 395.463 35.4324 395.48 35.4379C395.497 35.4434 395.513 35.4522 395.526 35.4636C395.539 35.475 395.55 35.4889 395.557 35.5043C395.564 35.5198 395.568 35.5364 395.568 35.5532C395.568 35.5701 395.564 35.5867 395.557 35.6022C395.55 35.6176 395.539 35.6315 395.526 35.6429C395.513 35.6543 395.497 35.6631 395.48 35.6686C395.463 35.6741 395.445 35.6762 395.427 35.6749H395.43Z" fill="#1A2F5A"/>
</g>
<path d="M380.401 25.2105V26.5054H379.837V25.2105H380.401ZM380.384 33.2141V34.421H379.82V33.2141H380.384ZM381.843 31.6505C381.843 31.4095 381.785 31.201 381.671 31.0251C381.561 30.846 381.373 30.6847 381.108 30.5414C380.846 30.3948 380.489 30.2515 380.036 30.1114C379.572 29.9778 379.17 29.8264 378.831 29.657C378.496 29.4876 378.237 29.2758 378.052 29.0218C377.872 28.7644 377.782 28.4419 377.782 28.0543C377.782 27.6732 377.876 27.3425 378.064 27.0624C378.255 26.7822 378.526 26.5673 378.876 26.4174C379.226 26.2643 379.636 26.1878 380.108 26.1878C380.472 26.1878 380.798 26.235 381.086 26.3295C381.377 26.4239 381.622 26.5656 381.82 26.7546C382.023 26.9402 382.178 27.1699 382.285 27.4435C382.391 27.7139 382.445 28.0266 382.445 28.3817H381.787C381.787 28.1406 381.75 27.9191 381.677 27.7171C381.607 27.5152 381.5 27.3393 381.356 27.1894C381.213 27.0363 381.036 26.9191 380.826 26.8376C380.62 26.7529 380.38 26.7106 380.108 26.7106C379.728 26.7106 379.415 26.7708 379.169 26.8914C378.922 27.0119 378.739 27.1731 378.622 27.3751C378.504 27.5771 378.445 27.7986 378.445 28.0396C378.445 28.2774 378.494 28.4859 378.594 28.6651C378.693 28.8442 378.874 29.0071 379.135 29.1537C379.397 29.297 379.773 29.442 380.262 29.5886C380.727 29.7221 381.124 29.8736 381.456 30.043C381.791 30.2124 382.049 30.4241 382.229 30.6782C382.41 30.929 382.5 31.2499 382.5 31.6408C382.5 32.0349 382.399 32.3721 382.196 32.6522C381.994 32.9291 381.71 33.1408 381.345 33.2874C380.981 33.434 380.555 33.5073 380.069 33.5073C379.756 33.5073 379.447 33.4715 379.141 33.3998C378.835 33.3249 378.559 33.2044 378.312 33.0382C378.065 32.8721 377.868 32.6522 377.721 32.3786C377.574 32.1017 377.5 31.7613 377.5 31.3574H378.157C378.157 31.6734 378.215 31.9356 378.329 32.1441C378.443 32.3525 378.592 32.5187 378.776 32.6425C378.964 32.7662 379.17 32.8542 379.395 32.9063C379.62 32.9584 379.844 32.9845 380.069 32.9845C380.445 32.9845 380.763 32.9259 381.025 32.8086C381.29 32.6881 381.493 32.5268 381.633 32.3248C381.773 32.1196 381.843 31.8949 381.843 31.6505Z" fill="#1A2F5A"/>
<path d="M423.516 20.44V31H421.932L417.516 23.928L416.396 21.944H416.38L416.444 23.544V31H415.228V20.44H416.812L421.212 27.48L422.348 29.512H422.364L422.3 27.896V20.44H423.516ZM429.925 22.84C430.682 22.84 431.349 23.0053 431.925 23.336C432.512 23.6667 432.97 24.1467 433.301 24.776C433.632 25.3947 433.797 26.136 433.797 27C433.797 27.864 433.632 28.6107 433.301 29.24C432.97 29.8587 432.512 30.3333 431.925 30.664C431.349 30.9947 430.682 31.16 429.925 31.16C429.178 31.16 428.512 30.9947 427.925 30.664C427.338 30.3333 426.88 29.8587 426.549 29.24C426.218 28.6107 426.053 27.864 426.053 27C426.053 26.136 426.218 25.3947 426.549 24.776C426.88 24.1467 427.338 23.6667 427.925 23.336C428.512 23.0053 429.178 22.84 429.925 22.84ZM429.925 23.944C429.381 23.944 428.917 24.0667 428.533 24.312C428.149 24.5573 427.85 24.9093 427.637 25.368C427.434 25.816 427.333 26.36 427.333 27C427.333 27.6293 427.434 28.1733 427.637 28.632C427.85 29.0907 428.149 29.4427 428.533 29.688C428.917 29.9333 429.381 30.056 429.925 30.056C430.469 30.056 430.933 29.9333 431.317 29.688C431.701 29.4427 431.994 29.0907 432.197 28.632C432.41 28.1733 432.517 27.6293 432.517 27C432.517 26.36 432.41 25.816 432.197 25.368C431.994 24.9093 431.701 24.5573 431.317 24.312C430.933 24.0667 430.469 23.944 429.925 23.944ZM452.108 20.44V31H450.892V24.36L451.036 21.576H451.02L447.548 31H446.46L442.988 21.576H442.972L443.116 24.36V31H441.9V20.44H443.868L446.188 26.856L446.988 29.496H447.02L447.836 26.872L450.14 20.44H452.108ZM458.503 22.84C459.26 22.84 459.927 23.0053 460.503 23.336C461.09 23.6667 461.548 24.1467 461.879 24.776C462.21 25.3947 462.375 26.136 462.375 27C462.375 27.864 462.21 28.6107 461.879 29.24C461.548 29.8587 461.09 30.3333 460.503 30.664C459.927 30.9947 459.26 31.16 458.503 31.16C457.756 31.16 457.09 30.9947 456.503 30.664C455.916 30.3333 455.458 29.8587 455.127 29.24C454.796 28.6107 454.631 27.864 454.631 27C454.631 26.136 454.796 25.3947 455.127 24.776C455.458 24.1467 455.916 23.6667 456.503 23.336C457.09 23.0053 457.756 22.84 458.503 22.84ZM458.503 23.944C457.959 23.944 457.495 24.0667 457.111 24.312C456.727 24.5573 456.428 24.9093 456.215 25.368C456.012 25.816 455.911 26.36 455.911 27C455.911 27.6293 456.012 28.1733 456.215 28.632C456.428 29.0907 456.727 29.4427 457.111 29.688C457.495 29.9333 457.959 30.056 458.503 30.056C459.047 30.056 459.511 29.9333 459.895 29.688C460.279 29.4427 460.572 29.0907 460.775 28.632C460.988 28.1733 461.095 27.6293 461.095 27C461.095 26.36 460.988 25.816 460.775 25.368C460.572 24.9093 460.279 24.5573 459.895 24.312C459.511 24.0667 459.047 23.944 458.503 23.944ZM464.785 31V23H465.825L466.001 24.312C466.225 23.8213 466.55 23.4533 466.977 23.208C467.414 22.9627 467.942 22.84 468.561 22.84C468.7 22.84 468.849 22.8507 469.009 22.872C469.18 22.8933 469.324 22.936 469.441 23L469.217 24.168C469.1 24.1253 468.972 24.0933 468.833 24.072C468.694 24.0507 468.497 24.04 468.241 24.04C467.91 24.04 467.574 24.136 467.233 24.328C466.902 24.52 466.625 24.8133 466.401 25.208C466.177 25.592 466.065 26.0827 466.065 26.68V31H464.785ZM474.41 31.16C473.653 31.16 472.975 30.9947 472.378 30.664C471.791 30.3333 471.333 29.8587 471.002 29.24C470.671 28.6107 470.506 27.864 470.506 27C470.506 26.136 470.671 25.3947 471.002 24.776C471.333 24.1467 471.786 23.6667 472.362 23.336C472.938 23.0053 473.594 22.84 474.33 22.84C475.077 22.84 475.711 23 476.234 23.32C476.767 23.64 477.173 24.0773 477.45 24.632C477.727 25.176 477.866 25.7893 477.866 26.472C477.866 26.6533 477.861 26.8187 477.85 26.968C477.839 27.1173 477.823 27.2507 477.802 27.368H471.338V26.232H477.242L476.586 26.36C476.586 25.592 476.373 25 475.946 24.584C475.53 24.168 474.981 23.96 474.298 23.96C473.775 23.96 473.322 24.0827 472.938 24.328C472.565 24.5627 472.271 24.9093 472.058 25.368C471.855 25.816 471.754 26.36 471.754 27C471.754 27.6293 471.861 28.1733 472.074 28.632C472.287 29.0907 472.586 29.4427 472.97 29.688C473.365 29.9227 473.834 30.04 474.378 30.04C474.965 30.04 475.439 29.928 475.802 29.704C476.175 29.48 476.474 29.176 476.698 28.792L477.706 29.384C477.503 29.7467 477.242 30.0613 476.922 30.328C476.613 30.5947 476.245 30.8027 475.818 30.952C475.402 31.0907 474.933 31.16 474.41 31.16ZM418.636 39.44C420.289 39.44 421.585 39.8987 422.524 40.816C423.473 41.7227 423.948 43.024 423.948 44.72C423.948 46.416 423.473 47.7227 422.524 48.64C421.585 49.5467 420.289 50 418.636 50H415.228V39.44H418.636ZM418.764 48.8C419.969 48.8 420.908 48.4427 421.58 47.728C422.263 47.0027 422.604 46 422.604 44.72C422.604 43.44 422.263 42.4427 421.58 41.728C420.908 41.0027 419.969 40.64 418.764 40.64H416.508V48.8H418.764ZM426.441 50V42H427.481L427.657 43.312C427.881 42.8213 428.206 42.4533 428.633 42.208C429.07 41.9627 429.598 41.84 430.217 41.84C430.356 41.84 430.505 41.8507 430.665 41.872C430.836 41.8933 430.98 41.936 431.097 42L430.873 43.168C430.756 43.1253 430.628 43.0933 430.489 43.072C430.35 43.0507 430.153 43.04 429.897 43.04C429.566 43.04 429.23 43.136 428.889 43.328C428.558 43.52 428.281 43.8133 428.057 44.208C427.833 44.592 427.721 45.0827 427.721 45.68V50H426.441ZM439.548 42L435.788 51.344C435.586 51.8667 435.362 52.2773 435.116 52.576C434.882 52.8853 434.615 53.104 434.316 53.232C434.028 53.3707 433.692 53.44 433.308 53.44C432.946 53.44 432.61 53.3867 432.3 53.28C432.002 53.184 431.735 53.0507 431.5 52.88L431.852 51.76C432.066 51.952 432.29 52.0907 432.524 52.176C432.77 52.272 433.01 52.32 433.244 52.32C433.522 52.32 433.783 52.2347 434.028 52.064C434.274 51.8933 434.498 51.5467 434.7 51.024L435.116 49.984L434.316 48.08L431.772 42H433.228L435.228 47.216L435.724 48.64L436.3 47.056L438.172 42H439.548ZM446.064 45.152V46.48H440.784V45.152H446.064ZM457.74 47.296C457.516 47.8933 457.196 48.4107 456.78 48.848C456.364 49.2747 455.873 49.6 455.308 49.824C454.753 50.048 454.145 50.16 453.484 50.16C452.481 50.16 451.612 49.9413 450.876 49.504C450.151 49.056 449.585 48.4267 449.18 47.616C448.785 46.8053 448.588 45.84 448.588 44.72C448.588 43.6 448.785 42.6347 449.18 41.824C449.585 41.0133 450.151 40.3893 450.876 39.952C451.612 39.504 452.471 39.28 453.452 39.28C454.135 39.28 454.743 39.376 455.276 39.568C455.809 39.7493 456.263 40.0267 456.636 40.4C457.02 40.7627 457.324 41.2107 457.548 41.744L456.284 42.336C456.049 41.728 455.708 41.2693 455.26 40.96C454.823 40.64 454.252 40.48 453.548 40.48C452.833 40.48 452.204 40.6507 451.66 40.992C451.116 41.3227 450.689 41.8027 450.38 42.432C450.081 43.0613 449.932 43.824 449.932 44.72C449.932 45.6053 450.076 46.368 450.364 47.008C450.652 47.6373 451.063 48.1227 451.596 48.464C452.129 48.7947 452.759 48.96 453.484 48.96C454.188 48.96 454.801 48.784 455.324 48.432C455.847 48.0693 456.225 47.5307 456.46 46.816L457.74 47.296ZM461.173 38.32V47.968C461.173 48.3733 461.247 48.656 461.397 48.816C461.546 48.9653 461.786 49.04 462.117 49.04C462.33 49.04 462.506 49.024 462.645 48.992C462.783 48.96 462.97 48.9013 463.205 48.816L462.997 49.936C462.826 50.0107 462.639 50.064 462.437 50.096C462.234 50.1387 462.026 50.16 461.813 50.16C461.162 50.16 460.677 49.984 460.357 49.632C460.047 49.28 459.893 48.7413 459.893 48.016V38.32H461.173ZM468.191 50.16C467.434 50.16 466.757 49.9947 466.159 49.664C465.573 49.3333 465.114 48.8587 464.783 48.24C464.453 47.6107 464.287 46.864 464.287 46C464.287 45.136 464.453 44.3947 464.783 43.776C465.114 43.1467 465.567 42.6667 466.143 42.336C466.719 42.0053 467.375 41.84 468.111 41.84C468.858 41.84 469.493 42 470.015 42.32C470.549 42.64 470.954 43.0773 471.231 43.632C471.509 44.176 471.647 44.7893 471.647 45.472C471.647 45.6533 471.642 45.8187 471.631 45.968C471.621 46.1173 471.605 46.2507 471.583 46.368H465.119V45.232H471.023L470.367 45.36C470.367 44.592 470.154 44 469.727 43.584C469.311 43.168 468.762 42.96 468.079 42.96C467.557 42.96 467.103 43.0827 466.719 43.328C466.346 43.5627 466.053 43.9093 465.839 44.368C465.637 44.816 465.535 45.36 465.535 46C465.535 46.6293 465.642 47.1733 465.855 47.632C466.069 48.0907 466.367 48.4427 466.751 48.688C467.146 48.9227 467.615 49.04 468.159 49.04C468.746 49.04 469.221 48.928 469.583 48.704C469.957 48.48 470.255 48.176 470.479 47.792L471.487 48.384C471.285 48.7467 471.023 49.0613 470.703 49.328C470.394 49.5947 470.026 49.8027 469.599 49.952C469.183 50.0907 468.714 50.16 468.191 50.16ZM478.754 44.832C478.754 44.2347 478.594 43.776 478.274 43.456C477.954 43.1253 477.5 42.96 476.914 42.96C476.359 42.96 475.89 43.0827 475.506 43.328C475.122 43.5627 474.839 43.9467 474.658 44.48L473.618 43.84C473.831 43.2427 474.226 42.7627 474.802 42.4C475.378 42.0267 476.092 41.84 476.946 41.84C477.522 41.84 478.044 41.9413 478.514 42.144C478.983 42.336 479.351 42.6347 479.618 43.04C479.895 43.4347 480.034 43.9467 480.034 44.576V48.448C480.034 48.832 480.236 49.024 480.642 49.024C480.844 49.024 481.042 48.9973 481.234 48.944L481.17 49.952C480.956 50.0587 480.679 50.112 480.338 50.112C480.028 50.112 479.751 50.0533 479.506 49.936C479.26 49.8187 479.068 49.6427 478.93 49.408C478.791 49.1627 478.722 48.8587 478.722 48.496V48.336L479.042 48.384C478.914 48.8 478.695 49.1413 478.386 49.408C478.076 49.664 477.73 49.856 477.346 49.984C476.962 50.1013 476.583 50.16 476.21 50.16C475.74 50.16 475.303 50.08 474.898 49.92C474.492 49.76 474.167 49.52 473.922 49.2C473.687 48.8693 473.57 48.464 473.57 47.984C473.57 47.3867 473.767 46.896 474.162 46.512C474.567 46.1173 475.127 45.8507 475.842 45.712L479.01 45.088V46.144L476.434 46.672C475.911 46.7787 475.522 46.928 475.266 47.12C475.01 47.312 474.882 47.5787 474.882 47.92C474.882 48.2507 475.01 48.5227 475.266 48.736C475.532 48.9387 475.906 49.04 476.386 49.04C476.695 49.04 476.988 49.0027 477.266 48.928C477.554 48.8427 477.81 48.72 478.034 48.56C478.258 48.3893 478.434 48.1813 478.562 47.936C478.69 47.68 478.754 47.3813 478.754 47.04V44.832ZM483.144 50V42H484.264L484.376 43.792L484.168 43.616C484.339 43.1893 484.568 42.848 484.856 42.592C485.144 42.3253 485.475 42.1333 485.848 42.016C486.232 41.8987 486.627 41.84 487.032 41.84C487.608 41.84 488.131 41.952 488.6 42.176C489.07 42.3893 489.443 42.72 489.72 43.168C490.008 43.616 490.152 44.1867 490.152 44.88V50H488.872V45.328C488.872 44.4427 488.68 43.8293 488.296 43.488C487.923 43.136 487.459 42.96 486.904 42.96C486.52 42.96 486.136 43.0507 485.752 43.232C485.368 43.4133 485.048 43.7067 484.792 44.112C484.547 44.5173 484.424 45.0613 484.424 45.744V50H483.144ZM493.691 40.464C493.403 40.464 493.168 40.3787 492.987 40.208C492.816 40.0267 492.731 39.792 492.731 39.504C492.731 39.216 492.816 38.9867 492.987 38.816C493.168 38.6347 493.403 38.544 493.691 38.544C493.979 38.544 494.208 38.6347 494.379 38.816C494.56 38.9867 494.651 39.216 494.651 39.504C494.651 39.792 494.56 40.0267 494.379 40.208C494.208 40.3787 493.979 40.464 493.691 40.464ZM494.331 42V50H493.051V42H494.331ZM497.301 50V42H498.421L498.533 43.792L498.325 43.616C498.495 43.1893 498.725 42.848 499.013 42.592C499.301 42.3253 499.631 42.1333 500.005 42.016C500.389 41.8987 500.783 41.84 501.189 41.84C501.765 41.84 502.287 41.952 502.757 42.176C503.226 42.3893 503.599 42.72 503.877 43.168C504.165 43.616 504.309 44.1867 504.309 44.88V50H503.029V45.328C503.029 44.4427 502.837 43.8293 502.453 43.488C502.079 43.136 501.615 42.96 501.061 42.96C500.677 42.96 500.293 43.0507 499.909 43.232C499.525 43.4133 499.205 43.7067 498.949 44.112C498.703 44.5173 498.581 45.0613 498.581 45.744V50H497.301ZM513.943 40.528L514.231 41.664C514.22 41.664 514.204 41.664 514.183 41.664C514.161 41.664 514.14 41.664 514.119 41.664C513.596 41.664 513.191 41.7707 512.903 41.984C512.625 42.1867 512.487 42.5173 512.487 42.976L511.703 42.576C511.703 42.16 511.799 41.7973 511.991 41.488C512.183 41.1787 512.444 40.944 512.775 40.784C513.105 40.6133 513.468 40.528 513.863 40.528C513.873 40.528 513.884 40.528 513.895 40.528C513.916 40.528 513.932 40.528 513.943 40.528ZM511.511 48.976C512.268 48.976 512.86 49.152 513.287 49.504C513.713 49.8453 513.927 50.304 513.927 50.88C513.927 51.4027 513.751 51.856 513.399 52.24C513.057 52.624 512.593 52.9173 512.007 53.12C511.431 53.3333 510.78 53.44 510.055 53.44C508.796 53.44 507.852 53.2267 507.223 52.8C506.604 52.3733 506.295 51.8613 506.295 51.264C506.295 50.8373 506.433 50.4533 506.711 50.112C506.999 49.7813 507.479 49.5947 508.151 49.552L508.039 49.792C507.676 49.696 507.367 49.536 507.111 49.312C506.865 49.0773 506.743 48.7413 506.743 48.304C506.743 47.8667 506.903 47.4933 507.223 47.184C507.553 46.864 508.039 46.6667 508.679 46.592L509.527 47.024H509.367C508.844 47.0773 508.471 47.2107 508.247 47.424C508.033 47.6267 507.927 47.8507 507.927 48.096C507.927 48.3947 508.033 48.6187 508.247 48.768C508.471 48.9067 508.78 48.976 509.175 48.976H511.511ZM510.039 52.368C510.657 52.368 511.164 52.304 511.559 52.176C511.964 52.048 512.263 51.8827 512.455 51.68C512.647 51.4773 512.743 51.2587 512.743 51.024C512.743 50.736 512.625 50.5067 512.391 50.336C512.167 50.1653 511.756 50.08 511.159 50.08H508.695C508.353 50.08 508.065 50.1653 507.831 50.336C507.596 50.5173 507.479 50.7627 507.479 51.072C507.479 51.4667 507.703 51.7813 508.151 52.016C508.609 52.2507 509.239 52.368 510.039 52.368ZM509.927 41.84C510.567 41.84 511.132 41.9573 511.623 42.192C512.124 42.416 512.513 42.7307 512.791 43.136C513.068 43.5413 513.207 44.0107 513.207 44.544C513.207 45.0667 513.068 45.536 512.791 45.952C512.513 46.3573 512.124 46.6773 511.623 46.912C511.132 47.136 510.567 47.248 509.927 47.248C508.871 47.248 508.06 46.9973 507.495 46.496C506.929 45.984 506.647 45.3333 506.647 44.544C506.647 44.0107 506.785 43.5413 507.063 43.136C507.351 42.7307 507.74 42.416 508.231 42.192C508.721 41.9573 509.287 41.84 509.927 41.84ZM509.927 42.88C509.372 42.88 508.908 43.0347 508.535 43.344C508.161 43.6427 507.975 44.0427 507.975 44.544C507.975 45.0347 508.161 45.4347 508.535 45.744C508.908 46.0533 509.372 46.208 509.927 46.208C510.481 46.208 510.945 46.0533 511.319 45.744C511.692 45.4347 511.879 45.0347 511.879 44.544C511.879 44.0427 511.692 43.6427 511.319 43.344C510.945 43.0347 510.481 42.88 509.927 42.88Z" fill="#1A2F5A"/>
<defs>
<clipPath id="clip0_1189_57">
<rect width="7.83356" height="26.9332" fill="white" transform="translate(18.1667 29.0498) rotate(-52.5205)"/>
</clipPath>
<clipPath id="clip1_1189_57">
<rect width="17" height="20.2632" fill="white" transform="translate(380.5 23.3684)"/>
</clipPath>
</defs>
</svg>
