<?xml version="1.0"?>
<svg xmlns="http://www.w3.org/2000/svg" width="192" height="58" viewBox="0 0 192 58" fill="none">
<g clip-path="url(#clip0_1466_1619)">
<path d="M58.176 29.1522C58.176 12.8817 69.9652 0 84.4594 0C99.0503 0 110.838 12.8817 110.838 29.1522C110.838 45.0369 99.0503 57.9176 84.4594 57.9176C69.9652 57.9176 58.176 45.0369 58.176 29.1522ZM87.5513 1.64789C75.5687 1.64789 69.4816 21.5981 69.4816 34.7705C69.4816 46.1022 74.0271 55.9808 81.1741 55.9808C90.1606 55.9808 99.4372 40.6777 99.4372 23.6317C99.4372 11.8164 94.8946 1.64789 87.5513 1.64789Z" fill="white"/>
<path d="M146.403 50.0631C140.807 41.1054 137.911 34.0922 133.075 34.0922H131.721V46.1024C131.721 53.8504 137.814 57.2402 137.814 57.2402H115.493C115.493 57.2402 121.296 54.2352 121.296 46.1024V11.8165C121.296 4.06755 115.3 0.678711 115.3 0.678711H141.199C152.022 0.969516 160.432 8.32978 160.432 17.337C160.432 27.5064 148.93 33.5115 141.103 33.5115C152.45 34.5778 156.368 51.8322 167.11 53.674C159.651 61.2766 151.421 58.0913 146.403 50.0631ZM138.298 2.42354H137.621C132.785 2.42354 131.721 6.97948 131.721 11.8185V32.2514H138.201C144.288 32.2514 149.121 24.4074 149.121 16.8523C149.119 9.39509 144.384 2.42354 138.298 2.42354Z" fill="white"/>
<path d="M185.432 46.1024C186.013 53.7534 192 57.2402 192 57.2402H169.775C169.775 57.2402 175.577 53.7505 176.148 46.2953V11.9135C175.573 3.78063 169.775 0.678711 169.775 0.678711H191.807C191.807 0.678711 186.004 4.07143 185.432 11.8165V46.1024Z" fill="white"/>
<path d="M46.8327 57.3439L44.353 57.4408L9.70503 13.0214V47.0135C9.70503 54.6646 16.1373 57.434 16.1373 57.434H0C0 57.434 6.78433 54.3127 6.78433 46.6607V12.1858C6.78433 6.47152 0 0.872559 0 0.872559H15.1712L44.0174 36.8557V11.7709C44.0174 3.24746 37.2031 0.872559 37.2031 0.872559H53.147C53.147 0.872559 46.8327 3.68367 46.8327 11.9231V57.3439Z" fill="white"/>
</g>
<defs>
<clipPath id="clip0_1466_1619">
<rect width="192" height="58" fill="white"/>
</clipPath>
</defs>
</svg>
