<?xml version="1.0"?>
<svg xmlns="http://www.w3.org/2000/svg" width="106" height="32" viewBox="0 0 106 32" fill="none">
<g clip-path="url(#clip0_1466_1392)">
<path d="M32.118 16.084C32.118 7.10713 38.6266 0 46.6287 0C54.684 0 61.1921 7.10713 61.1921 16.084C61.1921 24.8479 54.684 31.9545 46.6287 31.9545C38.6266 31.9545 32.118 24.8479 32.118 16.084ZM48.3356 0.909182C41.7202 0.909182 38.3597 11.9162 38.3597 19.1837C38.3597 25.4357 40.8692 30.886 44.8149 30.886C49.7762 30.886 54.8976 22.4429 54.8976 13.0382C54.8976 6.51937 52.3898 0.909182 48.3356 0.909182Z" fill="#1A2F5A"/>
<path d="M80.8269 27.6208C77.737 22.6786 76.1384 18.8093 73.4688 18.8093H72.7213V25.4356C72.7213 29.7104 76.085 31.5806 76.085 31.5806H63.7619C63.7619 31.5806 66.9655 29.9227 66.9655 25.4356V6.51927C66.9655 2.24397 63.6552 0.374268 63.6552 0.374268H77.9538C83.929 0.534711 88.5721 4.59555 88.5721 9.56503C88.5721 15.1758 82.222 18.4889 77.9009 18.4889C84.165 19.0772 86.3285 28.5969 92.2588 29.613C88.1406 33.8076 83.5969 32.0502 80.8269 27.6208ZM76.352 1.33693H75.9783C73.3086 1.33693 72.7213 3.85055 72.7213 6.52034V17.7937H76.2986C79.6592 17.7937 82.3272 13.466 82.3272 9.29762C82.3261 5.18331 79.712 1.33693 76.352 1.33693Z" fill="#1A2F5A"/>
<path d="M102.374 25.4356C102.694 29.6569 106 31.5806 106 31.5806H93.7297C93.7297 31.5806 96.9333 29.6553 97.2483 25.542V6.57275C96.9306 2.08567 93.7297 0.374268 93.7297 0.374268H105.893C105.893 0.374268 102.69 2.24611 102.374 6.51927V25.4356Z" fill="#1A2F5A"/>
<path d="M25.8555 31.638L24.4865 31.6915L5.35798 7.18426V25.9385C5.35798 30.1598 8.90915 31.6878 8.90915 31.6878H0C0 31.6878 3.74552 29.9657 3.74552 25.7439V6.72325C3.74552 3.57052 0 0.481445 0 0.481445H8.37575L24.3013 20.3342V6.49435C24.3013 1.79174 20.5392 0.481445 20.5392 0.481445H29.3416C29.3416 0.481445 25.8555 2.0324 25.8555 6.57831V31.638Z" fill="#1A2F5A"/>
</g>
<defs>
<clipPath id="clip0_1466_1392">
<rect width="106" height="32" fill="white"/>
</clipPath>
</defs>
</svg>
