<?xml version="1.0"?>
<svg xmlns="http://www.w3.org/2000/svg" width="55" height="15" viewBox="0 0 55 15" fill="none">
<rect width="55" height="14.4022" rx="7.20108" fill="#B3FCE5"/>
<path d="M8.98201 7.43589C8.98201 6.71658 8.4224 6.2113 7.73481 6.2113C7.04722 6.2113 6.48761 6.72538 6.48761 7.43589C6.48761 8.13801 7.04722 8.66009 7.73481 8.66009C8.42324 8.66009 8.98201 8.15521 8.98201 7.43589ZM8.99205 9.57624V9.01975C8.65285 9.40501 8.14762 9.64425 7.54325 9.64425C6.28685 9.64425 5.33325 8.7025 5.33325 7.43589C5.33325 6.17729 6.32324 5.21874 7.57128 5.21874C8.15849 5.21874 8.65327 5.45878 8.99247 5.83484V5.29555H10.1205V9.57624H8.99205ZM15.5986 8.62568C15.2038 8.62568 15.0942 8.48886 15.0942 8.1296V6.2289H15.819V5.29515H15.0942V4.25098H13.9382V5.29515H12.4493V5.03511C12.4493 4.67505 12.5965 4.53783 13.0001 4.53783H13.2535V3.7077H12.6973C11.7437 3.7077 11.2945 3.99894 11.2945 4.88909V5.29475H10.6525V6.2289H11.2945V9.57584H12.4505V6.2289H13.9395V8.32644C13.9395 9.19978 14.2966 9.57664 15.2318 9.57664H15.8282V8.62608H15.5982L15.5986 8.62568ZM19.7438 7.05023C19.6615 6.49414 19.175 6.16009 18.6066 6.16009C18.0378 6.16009 17.5702 6.48534 17.4515 7.05023H19.7434H19.7438ZM17.4418 7.71834C17.5246 8.35164 18.0106 8.7117 18.625 8.7117C19.111 8.7117 19.4875 8.49726 19.707 8.15481H20.8907C20.6151 9.06215 19.7438 9.64425 18.5974 9.64425C17.2131 9.64425 16.2411 8.7373 16.2411 7.44429C16.2411 6.15169 17.2683 5.21834 18.6259 5.21834C19.9923 5.21834 20.9823 6.16009 20.9823 7.44429C20.9823 7.53871 20.9735 7.63233 20.9551 7.71834H17.4418V7.71834ZM28.3312 7.43589C28.3312 6.74218 27.7716 6.2113 27.084 6.2113C26.3964 6.2113 25.8368 6.72538 25.8368 7.43589C25.8368 8.13801 26.3964 8.66009 27.084 8.66009C27.7716 8.66009 28.3312 8.1296 28.3312 7.43589ZM24.6992 5.29555H25.8272V5.85204C26.166 5.45798 26.6704 5.21874 27.276 5.21874C28.514 5.21874 29.4856 6.16929 29.4856 7.42709C29.4856 8.68609 28.4956 9.64505 27.2484 9.64505C26.6704 9.64505 26.1936 9.43061 25.864 9.07136V11.3377H24.6992V5.29555V5.29555ZM33.5509 7.43589C33.5509 6.71658 32.9921 6.2113 32.3037 6.2113C31.6161 6.2113 31.0565 6.72538 31.0565 7.43589C31.0565 8.13801 31.6161 8.66009 32.3037 8.66009C32.9921 8.66009 33.5509 8.15521 33.5509 7.43589ZM33.561 9.57624V9.01975C33.2218 9.40501 32.7165 9.64425 32.1122 9.64425C30.8558 9.64425 29.9022 8.7025 29.9022 7.43589C29.9022 6.17729 30.8921 5.21874 32.1398 5.21874C32.7266 5.21874 33.2218 5.45878 33.561 5.83484V5.29555H34.6885V9.57624H33.561ZM22.6665 5.71522C22.6665 5.71522 22.9535 5.21914 23.6565 5.21914C23.9572 5.21914 24.1517 5.31515 24.1517 5.31515V6.40733C24.1517 6.40733 23.7276 6.16289 23.3378 6.2121C22.948 6.26131 22.7017 6.59536 22.7029 7.04263V9.57704H21.5385V5.29635H22.6665V5.71522ZM39.9559 5.29555L37.1085 11.3241H35.9077L37.0257 8.99334L35.1352 5.29555H36.4962L37.602 7.76635L38.7367 5.29555H39.9559V5.29555ZM49.0456 5.19834L46.2225 3.67769C45.3943 3.23122 44.3583 3.78891 44.3583 4.68265V4.83868C44.3583 4.9795 44.4391 5.10992 44.5696 5.17993L45.1028 5.46718C45.2592 5.55199 45.4541 5.44638 45.4541 5.27795V4.88989C45.4541 4.69585 45.6792 4.57424 45.859 4.67145L48.3041 5.98926C48.4839 6.08608 48.4839 6.32852 48.3041 6.42533L45.859 7.74274C45.6792 7.83956 45.4546 7.71874 45.4546 7.52431V7.31787C45.4546 6.42453 44.4186 5.86564 43.5892 6.31291L40.766 7.83396C40.5778 7.93285 40.4208 8.07829 40.3115 8.25508C40.2021 8.43187 40.1444 8.63351 40.1444 8.83892C40.1444 9.04433 40.2021 9.24597 40.3115 9.42276C40.4208 9.59954 40.5778 9.74499 40.766 9.84388L43.5892 11.3645C44.4177 11.811 45.4546 11.2533 45.4546 10.3596V10.2035C45.4541 10.1338 45.4342 10.0655 45.397 10.0055C45.3599 9.94554 45.3067 9.89611 45.2429 9.86228L44.7101 9.57424C44.5537 9.48982 44.3583 9.59544 44.3583 9.76387V10.1519C44.3583 10.346 44.1333 10.4672 43.9539 10.37L41.5084 9.05255C41.4676 9.03102 41.4336 8.99942 41.4099 8.96103C41.3862 8.92265 41.3737 8.87889 41.3737 8.83432C41.3737 8.78974 41.3862 8.74598 41.4099 8.7076C41.4336 8.66922 41.4676 8.63761 41.5084 8.61608L43.9539 7.29827C44.1337 7.20106 44.3583 7.32228 44.3583 7.51671V7.72314C44.3583 8.61648 45.3939 9.17537 46.2225 8.7281L49.0456 7.20706C49.2336 7.10822 49.3905 6.96288 49.4997 6.78624C49.609 6.6096 49.6666 6.40813 49.6666 6.2029C49.6666 5.99766 49.609 5.7962 49.4997 5.61955C49.3905 5.44291 49.2336 5.29757 49.0456 5.19874V5.19834Z" fill="black"/>
</svg>
