<?xml version="1.0"?>
<svg xmlns="http://www.w3.org/2000/svg" width="309" height="24" viewBox="0 0 309 24" fill="none">
<path d="M12 0L14.6942 8.2918H23.4127L16.3593 13.4164L19.0534 21.7082L12 16.5836L4.94658 21.7082L7.64074 13.4164L0.587322 8.2918H9.30583L12 0Z" fill="#5A87C6"/>
<path d="M40 0L42.6942 8.2918H51.4127L44.3593 13.4164L47.0534 21.7082L40 16.5836L32.9466 21.7082L35.6407 13.4164L28.5873 8.2918H37.3058L40 0Z" fill="#5A87C6"/>
<path d="M68 0L70.6942 8.2918H79.4127L72.3593 13.4164L75.0534 21.7082L68 16.5836L60.9466 21.7082L63.6407 13.4164L56.5873 8.2918H65.3058L68 0Z" fill="#5A87C6"/>
<path d="M96 0L98.6942 8.2918H107.413L100.359 13.4164L103.053 21.7082L96 16.5836L88.9466 21.7082L91.6407 13.4164L84.5873 8.2918H93.3058L96 0Z" fill="#5A87C6"/>
<path d="M124 0L126.694 8.2918H135.413L128.359 13.4164L131.053 21.7082L124 16.5836L116.947 21.7082L119.641 13.4164L112.587 8.2918H121.306L124 0Z" fill="#5A87C6"/>
<path d="M152.684 17V14.232H147.532V13.288L152.348 6.44H153.964V13.128H155.836V14.232H153.964V17H152.684ZM148.892 13.128H152.684V9.176C152.684 8.89867 152.689 8.616 152.7 8.328C152.721 8.04 152.737 7.75733 152.748 7.48H152.716C152.588 7.74667 152.423 8.04533 152.22 8.376C152.017 8.70667 151.831 8.99467 151.66 9.24L148.892 13.128ZM158.566 15.08C158.875 15.08 159.126 15.176 159.318 15.368C159.51 15.56 159.606 15.8107 159.606 16.12C159.606 16.4293 159.51 16.68 159.318 16.872C159.126 17.064 158.875 17.16 158.566 17.16C158.256 17.16 158.006 17.064 157.814 16.872C157.622 16.68 157.526 16.4293 157.526 16.12C157.526 15.8107 157.622 15.56 157.814 15.368C158.006 15.176 158.256 15.08 158.566 15.08ZM165.44 6.28C166.325 6.28 167.072 6.51467 167.68 6.984C168.288 7.44267 168.746 8.08267 169.056 8.904C169.365 9.71467 169.52 10.6533 169.52 11.72C169.52 12.904 169.365 13.9013 169.056 14.712C168.746 15.512 168.288 16.12 167.68 16.536C167.082 16.952 166.341 17.16 165.456 17.16C164.581 17.16 163.829 16.9573 163.2 16.552C162.57 16.1467 162.101 15.5547 161.792 14.776L163.056 14.104C163.226 14.6587 163.504 15.1067 163.888 15.448C164.282 15.7893 164.821 15.96 165.504 15.96C166.058 15.96 166.517 15.8533 166.88 15.64C167.253 15.416 167.546 15.1013 167.76 14.696C167.973 14.28 168.122 13.784 168.208 13.208C168.304 12.632 168.352 11.992 168.352 11.288C168.352 11.2667 168.352 11.2453 168.352 11.224C168.352 11.192 168.352 11.1653 168.352 11.144H168.288C168.16 11.624 167.936 12.0133 167.616 12.312C167.296 12.6 166.933 12.808 166.528 12.936C166.133 13.064 165.738 13.128 165.344 13.128C164.65 13.128 164.037 12.9947 163.504 12.728C162.97 12.4507 162.554 12.0667 162.256 11.576C161.957 11.0853 161.808 10.504 161.808 9.832C161.808 9.10667 161.952 8.48267 162.24 7.96C162.528 7.42667 162.944 7.016 163.488 6.728C164.032 6.42933 164.682 6.28 165.44 6.28ZM165.456 7.512C164.709 7.512 164.138 7.72 163.744 8.136C163.349 8.54133 163.152 9.112 163.152 9.848C163.152 10.4773 163.36 10.9787 163.776 11.352C164.192 11.7147 164.752 11.896 165.456 11.896C165.914 11.896 166.314 11.8053 166.656 11.624C167.008 11.432 167.28 11.176 167.472 10.856C167.664 10.5253 167.76 10.1467 167.76 9.72C167.76 9.272 167.664 8.88267 167.472 8.552C167.28 8.22133 167.008 7.96533 166.656 7.784C166.314 7.60267 165.914 7.512 165.456 7.512ZM176.888 5.32L171.992 18.12H170.792L175.688 5.32H176.888ZM181.92 17.16C180.981 17.16 180.224 16.9467 179.648 16.52C179.083 16.0933 178.645 15.5013 178.336 14.744L179.584 14.088C179.755 14.6427 180.016 15.096 180.368 15.448C180.731 15.7893 181.259 15.96 181.952 15.96C182.443 15.96 182.859 15.8693 183.2 15.688C183.552 15.5067 183.824 15.2507 184.016 14.92C184.208 14.5787 184.304 14.1733 184.304 13.704C184.304 13.2027 184.213 12.7867 184.032 12.456C183.861 12.1147 183.611 11.8587 183.28 11.688C182.949 11.5173 182.544 11.432 182.064 11.432C181.723 11.432 181.403 11.4693 181.104 11.544C180.816 11.608 180.555 11.7147 180.32 11.864C180.085 12.0133 179.883 12.2107 179.712 12.456L178.592 12.248L179.216 6.44H185.152V7.64H180.304L179.888 10.968L179.856 11.112H179.888C180.144 10.8453 180.469 10.632 180.864 10.472C181.269 10.312 181.749 10.232 182.304 10.232C182.976 10.232 183.557 10.376 184.048 10.664C184.549 10.9413 184.939 11.336 185.216 11.848C185.493 12.36 185.632 12.9573 185.632 13.64C185.632 14.184 185.541 14.6747 185.36 15.112C185.179 15.5493 184.923 15.9227 184.592 16.232C184.261 16.5307 183.867 16.76 183.408 16.92C182.96 17.08 182.464 17.16 181.92 17.16ZM188.769 15.08C189.078 15.08 189.329 15.176 189.521 15.368C189.713 15.56 189.809 15.8107 189.809 16.12C189.809 16.4293 189.713 16.68 189.521 16.872C189.329 17.064 189.078 17.16 188.769 17.16C188.459 17.16 188.209 17.064 188.017 16.872C187.825 16.68 187.729 16.4293 187.729 16.12C187.729 15.8107 187.825 15.56 188.017 15.368C188.209 15.176 188.459 15.08 188.769 15.08ZM195.476 17.16C194.281 17.16 193.327 16.696 192.612 15.768C191.897 14.84 191.54 13.4907 191.54 11.72C191.54 9.94933 191.897 8.6 192.612 7.672C193.327 6.744 194.281 6.28 195.476 6.28C196.681 6.28 197.636 6.744 198.34 7.672C199.055 8.6 199.412 9.94933 199.412 11.72C199.412 13.4907 199.055 14.84 198.34 15.768C197.636 16.696 196.681 17.16 195.476 17.16ZM195.476 16.008C196.041 16.008 196.516 15.848 196.9 15.528C197.295 15.1973 197.588 14.712 197.78 14.072C197.983 13.432 198.084 12.648 198.084 11.72C198.084 10.792 197.983 10.008 197.78 9.368C197.588 8.728 197.295 8.248 196.9 7.928C196.516 7.59733 196.041 7.432 195.476 7.432C194.911 7.432 194.431 7.59733 194.036 7.928C193.652 8.248 193.359 8.728 193.156 9.368C192.964 10.008 192.868 10.792 192.868 11.72C192.868 12.648 192.964 13.432 193.156 14.072C193.359 14.712 193.652 15.1973 194.036 15.528C194.431 15.848 194.911 16.008 195.476 16.008ZM211.026 6.28C211.954 6.28 212.754 6.472 213.426 6.856C214.098 7.22933 214.658 7.784 215.106 8.52L214.034 9.352C213.64 8.66933 213.192 8.18933 212.69 7.912C212.2 7.624 211.602 7.48 210.898 7.48C210.333 7.48 209.864 7.56 209.49 7.72C209.128 7.88 208.861 8.09333 208.69 8.36C208.52 8.616 208.434 8.90933 208.434 9.24C208.434 9.61333 208.552 9.944 208.786 10.232C209.021 10.5093 209.49 10.728 210.194 10.888L212.482 11.4C213.496 11.624 214.2 11.9653 214.594 12.424C215 12.872 215.202 13.432 215.202 14.104C215.202 14.7013 215.032 15.2347 214.69 15.704C214.36 16.1627 213.89 16.52 213.282 16.776C212.674 17.032 211.96 17.16 211.138 17.16C210.37 17.16 209.693 17.0587 209.106 16.856C208.53 16.6427 208.034 16.36 207.618 16.008C207.202 15.656 206.861 15.2613 206.594 14.824L207.714 13.912C207.917 14.3173 208.178 14.6747 208.498 14.984C208.818 15.2933 209.202 15.5333 209.65 15.704C210.109 15.8747 210.632 15.96 211.218 15.96C211.762 15.96 212.232 15.896 212.626 15.768C213.032 15.6293 213.341 15.432 213.554 15.176C213.768 14.9093 213.874 14.5893 213.874 14.216C213.874 13.8747 213.762 13.5707 213.538 13.304C213.314 13.0267 212.893 12.8187 212.274 12.68L209.794 12.12C209.144 11.9707 208.616 11.768 208.21 11.512C207.816 11.2453 207.528 10.936 207.346 10.584C207.176 10.2213 207.09 9.832 207.09 9.416C207.09 8.85067 207.245 8.33333 207.554 7.864C207.874 7.384 208.328 7 208.914 6.712C209.512 6.424 210.216 6.28 211.026 6.28ZM219.532 6.728V14.792C219.532 15.1867 219.644 15.48 219.868 15.672C220.092 15.864 220.38 15.96 220.732 15.96C221.042 15.96 221.308 15.9067 221.532 15.8C221.756 15.6933 221.959 15.5493 222.14 15.368L222.588 16.44C222.343 16.664 222.05 16.84 221.708 16.968C221.378 17.096 220.994 17.16 220.556 17.16C220.151 17.16 219.772 17.0907 219.42 16.952C219.068 16.8027 218.786 16.5733 218.572 16.264C218.37 15.944 218.263 15.528 218.252 15.016V7.08L219.532 6.728ZM222.444 9V10.104H216.652V9H222.444ZM229.019 11.832C229.019 11.2347 228.859 10.776 228.539 10.456C228.219 10.1253 227.766 9.96 227.179 9.96C226.625 9.96 226.155 10.0827 225.771 10.328C225.387 10.5627 225.105 10.9467 224.923 11.48L223.883 10.84C224.097 10.2427 224.491 9.76267 225.067 9.4C225.643 9.02667 226.358 8.84 227.211 8.84C227.787 8.84 228.31 8.94133 228.779 9.144C229.249 9.336 229.617 9.63467 229.883 10.04C230.161 10.4347 230.299 10.9467 230.299 11.576V15.448C230.299 15.832 230.502 16.024 230.907 16.024C231.11 16.024 231.307 15.9973 231.499 15.944L231.435 16.952C231.222 17.0587 230.945 17.112 230.603 17.112C230.294 17.112 230.017 17.0533 229.771 16.936C229.526 16.8187 229.334 16.6427 229.195 16.408C229.057 16.1627 228.987 15.8587 228.987 15.496V15.336L229.307 15.384C229.179 15.8 228.961 16.1413 228.651 16.408C228.342 16.664 227.995 16.856 227.611 16.984C227.227 17.1013 226.849 17.16 226.475 17.16C226.006 17.16 225.569 17.08 225.163 16.92C224.758 16.76 224.433 16.52 224.187 16.2C223.953 15.8693 223.835 15.464 223.835 14.984C223.835 14.3867 224.033 13.896 224.427 13.512C224.833 13.1173 225.393 12.8507 226.107 12.712L229.275 12.088V13.144L226.699 13.672C226.177 13.7787 225.787 13.928 225.531 14.12C225.275 14.312 225.147 14.5787 225.147 14.92C225.147 15.2507 225.275 15.5227 225.531 15.736C225.798 15.9387 226.171 16.04 226.651 16.04C226.961 16.04 227.254 16.0027 227.531 15.928C227.819 15.8427 228.075 15.72 228.299 15.56C228.523 15.3893 228.699 15.1813 228.827 14.936C228.955 14.68 229.019 14.3813 229.019 14.04V11.832ZM233.41 17V9H234.45L234.626 10.312C234.85 9.82133 235.175 9.45333 235.602 9.208C236.039 8.96267 236.567 8.84 237.186 8.84C237.325 8.84 237.474 8.85067 237.634 8.872C237.805 8.89333 237.949 8.936 238.066 9L237.842 10.168C237.725 10.1253 237.597 10.0933 237.458 10.072C237.319 10.0507 237.122 10.04 236.866 10.04C236.535 10.04 236.199 10.136 235.858 10.328C235.527 10.52 235.25 10.8133 235.026 11.208C234.802 11.592 234.69 12.0827 234.69 12.68V17H233.41ZM249.259 6.44C250.337 6.44 251.201 6.71733 251.851 7.272C252.502 7.82667 252.827 8.57867 252.827 9.528C252.827 10.4773 252.497 11.2187 251.835 11.752C251.185 12.2747 250.321 12.536 249.243 12.536L249.131 12.616H246.539V17H245.259V6.44H249.259ZM249.243 11.416C250.001 11.416 250.561 11.2613 250.923 10.952C251.297 10.632 251.483 10.1573 251.483 9.528C251.483 8.89867 251.297 8.42933 250.923 8.12C250.561 7.8 250.001 7.64 249.243 7.64H246.539V11.416H249.243ZM249.979 11.672L253.467 17H251.947L248.907 12.376L249.979 11.672ZM258.738 17.16C257.981 17.16 257.304 16.9947 256.706 16.664C256.12 16.3333 255.661 15.8587 255.33 15.24C255 14.6107 254.834 13.864 254.834 13C254.834 12.136 255 11.3947 255.33 10.776C255.661 10.1467 256.114 9.66667 256.69 9.336C257.266 9.00533 257.922 8.84 258.658 8.84C259.405 8.84 260.04 9 260.562 9.32C261.096 9.64 261.501 10.0773 261.778 10.632C262.056 11.176 262.194 11.7893 262.194 12.472C262.194 12.6533 262.189 12.8187 262.178 12.968C262.168 13.1173 262.152 13.2507 262.13 13.368H255.666V12.232H261.57L260.914 12.36C260.914 11.592 260.701 11 260.274 10.584C259.858 10.168 259.309 9.96 258.626 9.96C258.104 9.96 257.65 10.0827 257.266 10.328C256.893 10.5627 256.6 10.9093 256.386 11.368C256.184 11.816 256.082 12.36 256.082 13C256.082 13.6293 256.189 14.1733 256.402 14.632C256.616 15.0907 256.914 15.4427 257.298 15.688C257.693 15.9227 258.162 16.04 258.706 16.04C259.293 16.04 259.768 15.928 260.13 15.704C260.504 15.48 260.802 15.176 261.026 14.792L262.034 15.384C261.832 15.7467 261.57 16.0613 261.25 16.328C260.941 16.5947 260.573 16.8027 260.146 16.952C259.73 17.0907 259.261 17.16 258.738 17.16ZM269.706 9H271.05L267.722 17H266.442L263.114 9H264.57L267.098 15.704L269.706 9ZM273.362 7.464C273.074 7.464 272.84 7.37867 272.658 7.208C272.488 7.02667 272.402 6.792 272.402 6.504C272.402 6.216 272.488 5.98667 272.658 5.816C272.84 5.63467 273.074 5.544 273.362 5.544C273.65 5.544 273.88 5.63467 274.05 5.816C274.232 5.98667 274.322 6.216 274.322 6.504C274.322 6.792 274.232 7.02667 274.05 7.208C273.88 7.37867 273.65 7.464 273.362 7.464ZM274.002 9V17H272.722V9H274.002ZM280.316 17.16C279.559 17.16 278.882 16.9947 278.284 16.664C277.698 16.3333 277.239 15.8587 276.908 15.24C276.578 14.6107 276.412 13.864 276.412 13C276.412 12.136 276.578 11.3947 276.908 10.776C277.239 10.1467 277.692 9.66667 278.268 9.336C278.844 9.00533 279.5 8.84 280.236 8.84C280.983 8.84 281.618 9 282.14 9.32C282.674 9.64 283.079 10.0773 283.356 10.632C283.634 11.176 283.772 11.7893 283.772 12.472C283.772 12.6533 283.767 12.8187 283.756 12.968C283.746 13.1173 283.73 13.2507 283.708 13.368H277.244V12.232H283.148L282.492 12.36C282.492 11.592 282.279 11 281.852 10.584C281.436 10.168 280.887 9.96 280.204 9.96C279.682 9.96 279.228 10.0827 278.844 10.328C278.471 10.5627 278.178 10.9093 277.964 11.368C277.762 11.816 277.66 12.36 277.66 13C277.66 13.6293 277.767 14.1733 277.98 14.632C278.194 15.0907 278.492 15.4427 278.876 15.688C279.271 15.9227 279.74 16.04 280.284 16.04C280.871 16.04 281.346 15.928 281.708 15.704C282.082 15.48 282.38 15.176 282.604 14.792L283.612 15.384C283.41 15.7467 283.148 16.0613 282.828 16.328C282.519 16.5947 282.151 16.8027 281.724 16.952C281.308 17.0907 280.839 17.16 280.316 17.16ZM296.051 9H297.475L294.691 17H293.411L291.155 10.632L289.027 17H287.747L284.963 9H286.387L288.403 15.512L290.579 9H291.859L294.035 15.512L296.051 9ZM302.102 17.16C301.324 17.16 300.604 16.9947 299.942 16.664C299.292 16.3333 298.79 15.864 298.438 15.256L299.526 14.472C299.761 14.9627 300.102 15.3467 300.55 15.624C301.009 15.9013 301.558 16.04 302.198 16.04C302.764 16.04 303.206 15.9333 303.526 15.72C303.846 15.496 304.006 15.208 304.006 14.856C304.006 14.632 303.932 14.4293 303.782 14.248C303.644 14.056 303.372 13.9173 302.966 13.832L301.046 13.432C300.268 13.272 299.708 13.0053 299.366 12.632C299.036 12.2587 298.87 11.7947 298.87 11.24C298.87 10.8027 298.993 10.4027 299.238 10.04C299.494 9.67733 299.852 9.38933 300.31 9.176C300.78 8.952 301.329 8.84 301.958 8.84C302.748 8.84 303.414 8.99467 303.958 9.304C304.502 9.61333 304.908 10.0507 305.174 10.616L304.102 11.32C303.921 10.8507 303.628 10.5093 303.222 10.296C302.817 10.072 302.396 9.96 301.958 9.96C301.574 9.96 301.244 10.0133 300.966 10.12C300.7 10.2267 300.492 10.376 300.342 10.568C300.204 10.7493 300.134 10.9573 300.134 11.192C300.134 11.4267 300.214 11.6453 300.374 11.848C300.534 12.04 300.833 12.1787 301.27 12.264L303.27 12.68C304.017 12.8293 304.54 13.0747 304.838 13.416C305.137 13.7573 305.286 14.1733 305.286 14.664C305.286 15.1653 305.153 15.608 304.886 15.992C304.62 16.3653 304.246 16.6533 303.766 16.856C303.286 17.0587 302.732 17.16 302.102 17.16Z" fill="#1A2F5A"/>
</svg>
