<?xml version="1.0"?>
<svg xmlns="http://www.w3.org/2000/svg" width="140" height="36" viewBox="0 0 140 36" fill="none">
<path d="M79.364 11.9085C79.364 7.82394 79.4346 4.02113 79.6466 0.5L68.8339 2.54225V3.52817L69.894 3.66901C70.6714 3.73944 71.1661 4.02113 71.4488 4.44366C71.7314 4.93662 71.9435 5.64084 72.0848 6.69718C72.2262 8.73944 72.3675 13.3873 72.2968 20.7113C72.2968 27.9648 72.2262 32.5423 72.0848 34.3028C75.9717 35.1479 79.0106 35.5 81.2721 35.5C85.5124 35.5 88.8339 34.3028 91.2368 31.838C93.6396 29.4437 94.9117 26.0634 94.9117 21.9085C94.9117 18.5986 93.9929 15.8521 92.1555 13.669C90.318 11.4859 87.9859 10.4296 85.2297 10.4296C83.3922 10.4296 81.4841 10.9225 79.364 11.9085ZM79.576 33.5986C79.4346 31.3451 79.2933 24.5845 79.2933 13.5282C79.9293 13.3169 80.7774 13.1761 81.8375 13.1761C83.5336 13.1761 84.8763 14.0211 85.8657 15.7817C86.8551 17.5423 87.3498 19.6549 87.3498 22.331C87.3498 25.6408 86.7844 28.3169 85.6537 30.5704C84.523 32.7535 83.1095 33.8803 81.3428 33.8803C80.7774 33.7394 80.212 33.669 79.576 33.5986ZM28.2685 1.20423H0V2.61268L1.4841 2.75352C2.61484 2.96479 3.39223 3.38732 3.88693 4.02113C4.38163 4.72535 4.66431 5.85211 4.73498 7.40141C5.30035 15.007 5.30035 22.1197 4.73498 28.669C4.59364 30.2183 4.31095 31.3451 3.88693 32.0493C3.39223 32.7535 2.61484 33.1761 1.4841 33.3169L0 33.5282V34.9366H18.2332V33.5282L16.3251 33.3873C15.1943 33.2465 14.417 32.7535 13.9223 32.1197C13.4276 31.4155 13.1449 30.2887 13.0742 28.7394C12.8622 25.9225 12.7208 22.6831 12.7208 19.0915L16.5371 19.162C18.5866 19.2324 20 20.7817 20.7067 23.8803H22.1201V12.4014H20.7067C20 15.4296 18.6572 16.9789 16.5371 17.0493L12.7208 17.1197C12.7208 10.7817 12.8622 6.27465 13.0742 3.52817H18.6572C22.6148 3.52817 25.3004 6.06338 26.8551 11.1338L28.5512 10.6408L28.2685 1.20423ZM24.947 22.8944C24.947 26.5563 26.0071 29.5845 28.0565 31.9789C30.106 34.3732 33.1449 35.5 36.9611 35.5C40.7774 35.5 43.8869 34.3028 46.1484 31.838C48.4099 29.4437 49.47 26.4155 49.47 22.7535C49.47 19.0915 48.4099 16.0634 46.3604 13.669C44.311 11.2746 41.2721 10.1479 37.4558 10.1479C33.6396 10.1479 30.53 11.3451 28.2685 13.8099C26.0071 16.2042 24.947 19.2324 24.947 22.8944ZM40.7067 14.8662C41.5548 16.9085 41.9081 19.5845 41.9081 22.8239C41.9081 30.2887 40.3534 33.9507 37.3145 33.9507C35.7597 33.9507 34.5583 32.8944 33.7102 30.7817C32.8622 28.669 32.5088 25.993 32.5088 22.8239C32.5088 15.4296 34.0636 11.7676 37.1025 11.7676C38.6572 11.6972 39.8587 12.7535 40.7067 14.8662ZM100.424 31.9789C102.756 34.3028 105.724 35.5 109.258 35.5C111.449 35.5 113.357 35.0775 115.053 34.162C116.749 33.3169 118.092 32.2606 119.011 30.993L118.304 30.1479C116.749 31.3451 114.982 31.9084 112.933 31.9084C110.106 31.9084 107.915 30.993 106.431 29.0915C104.876 27.1901 104.17 24.7958 104.311 21.6972H119.435C119.435 18.3169 118.587 15.5704 116.82 13.3873C115.053 11.2746 112.58 10.2183 109.399 10.2183C105.442 10.2183 102.403 11.4859 100.212 13.9507C98.0212 16.4155 96.9611 19.4437 96.9611 23.0352C96.9611 26.6972 98.0919 29.6549 100.424 31.9789ZM105.654 14.3028C106.431 12.6127 107.42 11.7676 108.763 11.7676C110.883 11.7676 111.943 14.4437 111.943 19.8662L104.452 20.007C104.523 17.8944 104.876 15.993 105.654 14.3028ZM138.445 11.4859C136.537 10.6408 134.134 10.1479 131.237 10.1479C128.269 10.1479 125.936 10.9225 124.17 12.4014C122.403 13.8803 121.484 15.7113 121.484 17.8944C121.484 19.7958 122.049 21.2746 123.11 22.331C124.17 23.3873 125.866 24.3028 128.057 25.0775C130.035 25.7817 131.449 26.4859 132.155 27.1197C132.862 27.8239 133.286 28.5986 133.286 29.6549C133.286 30.6408 132.933 31.5563 132.155 32.2606C131.449 33.0352 130.459 33.3873 129.187 33.3873C126.078 33.3873 123.746 31.1338 122.12 26.6268L120.919 26.9789L121.201 34.0211C123.746 35.007 126.572 35.5 129.682 35.5C132.933 35.5 135.406 34.7958 137.244 33.3169C139.081 31.9084 140 29.8662 140 27.331C140 25.6408 139.576 24.2324 138.657 23.1761C137.739 22.1197 136.254 21.2042 134.134 20.3592C131.802 19.5141 130.177 18.7394 129.329 18.0352C128.481 17.331 128.057 16.4859 128.057 15.4296C128.057 14.3732 128.339 13.5282 128.975 12.8239C129.611 12.1197 130.389 11.838 131.378 11.838C134.205 11.838 136.254 13.8803 137.527 17.8944L138.728 17.5423L138.445 11.4859ZM70.4594 10.8521C69.47 10.3592 68.4099 10.1479 67.2085 10.1479C66.0071 10.1479 64.8056 10.6408 63.4629 11.6268C62.1201 12.6127 61.1307 13.9507 60.3534 15.7817L60.424 10.1479L49.682 12.2606V13.2465L50.7421 13.3169C52.0848 13.4577 52.8622 14.5141 53.0035 16.4155C53.4276 20.7817 53.4276 25.4296 53.0035 30.3592C52.8622 32.2606 52.0848 33.2465 50.7421 33.4577L49.682 33.5986V34.9366H64.6643V33.5986L62.7562 33.4577C61.4134 33.3169 60.636 32.2606 60.4947 30.3592C60.0707 26.2746 60 21.9085 60.3534 17.4014C60.7774 16.6972 61.6961 16.2746 63.1095 16.1338C64.523 15.993 66.1484 16.4155 67.8445 17.4014L70.4594 10.8521Z" fill="#1A2F5A"/>
</svg>
