<?xml version="1.0"?>
<svg xmlns="http://www.w3.org/2000/svg" width="465" height="28" viewBox="0 0 465 28" fill="none">
<path d="M12 2L14.6942 10.2918H23.4127L16.3593 15.4164L19.0534 23.7082L12 18.5836L4.94658 23.7082L7.64074 15.4164L0.587322 10.2918H9.30583L12 2Z" fill="#1A2F5A"/>
<path d="M40 2L42.6942 10.2918H51.4127L44.3593 15.4164L47.0534 23.7082L40 18.5836L32.9466 23.7082L35.6407 15.4164L28.5873 10.2918H37.3058L40 2Z" fill="#1A2F5A"/>
<path d="M68 2L70.6942 10.2918H79.4127L72.3593 15.4164L75.0534 23.7082L68 18.5836L60.9466 23.7082L63.6407 15.4164L56.5873 10.2918H65.3058L68 2Z" fill="#1A2F5A"/>
<path d="M96 2L98.6942 10.2918H107.413L100.359 15.4164L103.053 23.7082L96 18.5836L88.9466 23.7082L91.6407 15.4164L84.5873 10.2918H93.3058L96 2Z" fill="#1A2F5A"/>
<path d="M124 2L126.694 10.2918H135.413L128.359 15.4164L131.053 23.7082L124 18.5836L116.947 23.7082L119.641 15.4164L112.587 10.2918H121.306L124 2Z" fill="#1A2F5A"/>
<path d="M156.728 22V11.968C156.728 11.6 156.728 11.224 156.728 10.84C156.744 10.44 156.76 10.032 156.776 9.616C156.232 10.112 155.624 10.544 154.952 10.912C154.28 11.28 153.592 11.536 152.888 11.68L152.456 8.896C152.824 8.864 153.232 8.76 153.68 8.584C154.144 8.392 154.608 8.168 155.072 7.912C155.552 7.64 155.984 7.36 156.368 7.072C156.768 6.768 157.072 6.464 157.28 6.16H159.968V22H156.728ZM168.848 22.24C167.456 22.24 166.28 21.952 165.32 21.376C164.376 20.8 163.6 19.92 162.992 18.736L165.968 17.248C166.176 17.952 166.504 18.52 166.952 18.952C167.4 19.384 168.056 19.6 168.92 19.6C169.512 19.6 170.016 19.496 170.432 19.288C170.848 19.08 171.168 18.776 171.392 18.376C171.632 17.976 171.752 17.488 171.752 16.912C171.752 16.336 171.64 15.856 171.416 15.472C171.208 15.072 170.904 14.776 170.504 14.584C170.104 14.376 169.6 14.272 168.992 14.272C168.576 14.272 168.184 14.312 167.816 14.392C167.464 14.472 167.144 14.6 166.856 14.776C166.568 14.936 166.312 15.152 166.088 15.424L163.496 14.944L164.48 6.16H174.056V8.824H166.976L166.496 12.688L166.424 13H166.472C166.808 12.616 167.264 12.32 167.84 12.112C168.432 11.904 169.104 11.8 169.856 11.8C170.896 11.8 171.784 12.008 172.52 12.424C173.256 12.84 173.824 13.424 174.224 14.176C174.624 14.912 174.824 15.76 174.824 16.72C174.824 17.632 174.672 18.44 174.368 19.144C174.064 19.832 173.632 20.408 173.072 20.872C172.528 21.32 171.896 21.664 171.176 21.904C170.456 22.128 169.68 22.24 168.848 22.24ZM179.289 18.328C179.801 18.328 180.225 18.456 180.561 18.712C180.897 18.952 181.153 19.28 181.329 19.696C181.505 20.096 181.593 20.544 181.593 21.04C181.593 21.696 181.457 22.328 181.185 22.936C180.929 23.544 180.569 24.088 180.105 24.568C179.641 25.048 179.113 25.424 178.521 25.696L177.081 24.568C177.529 24.392 177.929 24.176 178.281 23.92C178.649 23.664 178.961 23.376 179.217 23.056C179.473 22.736 179.657 22.408 179.769 22.072L179.649 22C179.569 22.048 179.473 22.088 179.361 22.12C179.249 22.168 179.089 22.192 178.881 22.192C178.625 22.192 178.369 22.128 178.113 22C177.857 21.856 177.641 21.656 177.465 21.4C177.289 21.128 177.201 20.792 177.201 20.392C177.201 19.96 177.297 19.592 177.489 19.288C177.681 18.984 177.937 18.752 178.257 18.592C178.577 18.416 178.921 18.328 179.289 18.328ZM189.984 22.24C187.952 22.24 186.384 21.552 185.28 20.176C184.192 18.8 183.648 16.768 183.648 14.08C183.648 11.392 184.192 9.36 185.28 7.984C186.384 6.608 187.952 5.92 189.984 5.92C192.016 5.92 193.576 6.608 194.664 7.984C195.768 9.36 196.32 11.392 196.32 14.08C196.32 16.768 195.768 18.8 194.664 20.176C193.576 21.552 192.016 22.24 189.984 22.24ZM189.984 19.576C190.672 19.576 191.232 19.384 191.664 19C192.112 18.6 192.448 18 192.672 17.2C192.896 16.384 193.008 15.344 193.008 14.08C193.008 12.816 192.896 11.784 192.672 10.984C192.448 10.168 192.112 9.568 191.664 9.184C191.232 8.784 190.672 8.584 189.984 8.584C189.296 8.584 188.728 8.784 188.28 9.184C187.832 9.568 187.496 10.168 187.272 10.984C187.064 11.784 186.96 12.816 186.96 14.08C186.96 15.344 187.064 16.384 187.272 17.2C187.496 18 187.832 18.6 188.28 19C188.728 19.384 189.296 19.576 189.984 19.576ZM205.241 22.24C203.209 22.24 201.641 21.552 200.537 20.176C199.449 18.8 198.905 16.768 198.905 14.08C198.905 11.392 199.449 9.36 200.537 7.984C201.641 6.608 203.209 5.92 205.241 5.92C207.273 5.92 208.833 6.608 209.921 7.984C211.025 9.36 211.577 11.392 211.577 14.08C211.577 16.768 211.025 18.8 209.921 20.176C208.833 21.552 207.273 22.24 205.241 22.24ZM205.241 19.576C205.929 19.576 206.489 19.384 206.921 19C207.369 18.6 207.705 18 207.929 17.2C208.153 16.384 208.265 15.344 208.265 14.08C208.265 12.816 208.153 11.784 207.929 10.984C207.705 10.168 207.369 9.568 206.921 9.184C206.489 8.784 205.929 8.584 205.241 8.584C204.553 8.584 203.985 8.784 203.537 9.184C203.089 9.568 202.753 10.168 202.529 10.984C202.321 11.784 202.217 12.816 202.217 14.08C202.217 15.344 202.321 16.384 202.529 17.2C202.753 18 203.089 18.6 203.537 19C203.985 19.384 204.553 19.576 205.241 19.576ZM220.499 22.24C218.467 22.24 216.899 21.552 215.795 20.176C214.707 18.8 214.163 16.768 214.163 14.08C214.163 11.392 214.707 9.36 215.795 7.984C216.899 6.608 218.467 5.92 220.499 5.92C222.531 5.92 224.091 6.608 225.179 7.984C226.283 9.36 226.835 11.392 226.835 14.08C226.835 16.768 226.283 18.8 225.179 20.176C224.091 21.552 222.531 22.24 220.499 22.24ZM220.499 19.576C221.187 19.576 221.747 19.384 222.179 19C222.627 18.6 222.963 18 223.187 17.2C223.411 16.384 223.523 15.344 223.523 14.08C223.523 12.816 223.411 11.784 223.187 10.984C222.963 10.168 222.627 9.568 222.179 9.184C221.747 8.784 221.187 8.584 220.499 8.584C219.811 8.584 219.243 8.784 218.795 9.184C218.347 9.568 218.011 10.168 217.787 10.984C217.579 11.784 217.475 12.816 217.475 14.08C217.475 15.344 217.579 16.384 217.787 17.2C218.011 18 218.347 18.6 218.795 19C219.243 19.384 219.811 19.576 220.499 19.576ZM236.741 8.08V20.488H234.029V8.08H236.741ZM241.325 13.024V15.544H229.421V13.024H241.325ZM265.617 6.16V22H262.305V6.16H265.617ZM255.321 6.16V22H252.009V6.16H255.321ZM264.033 12.664V15.328H253.665V12.664H264.033ZM276.162 14.344C276.162 13.656 275.962 13.12 275.562 12.736C275.178 12.352 274.666 12.16 274.026 12.16C273.434 12.16 272.914 12.312 272.466 12.616C272.018 12.92 271.69 13.424 271.482 14.128L268.674 13.264C268.946 12.208 269.538 11.36 270.45 10.72C271.378 10.08 272.618 9.76 274.17 9.76C275.226 9.76 276.146 9.928 276.93 10.264C277.714 10.584 278.322 11.072 278.754 11.728C279.202 12.384 279.426 13.208 279.426 14.2V19.072C279.426 19.68 279.714 19.984 280.29 19.984C280.562 19.984 280.818 19.944 281.058 19.864L280.866 21.904C280.45 22.112 279.93 22.216 279.306 22.216C278.746 22.216 278.242 22.12 277.794 21.928C277.346 21.736 276.994 21.448 276.738 21.064C276.482 20.664 276.354 20.168 276.354 19.576V19.48L276.93 19.384C276.834 19.992 276.57 20.512 276.138 20.944C275.706 21.36 275.178 21.68 274.554 21.904C273.946 22.128 273.314 22.24 272.658 22.24C271.842 22.24 271.138 22.12 270.546 21.88C269.954 21.624 269.498 21.256 269.178 20.776C268.858 20.296 268.698 19.704 268.698 19C268.698 18.104 268.986 17.376 269.562 16.816C270.138 16.24 270.962 15.848 272.034 15.64L276.546 14.728L276.522 16.768L273.642 17.344C273.098 17.456 272.682 17.608 272.394 17.8C272.122 17.976 271.986 18.272 271.986 18.688C271.986 19.088 272.13 19.392 272.418 19.6C272.722 19.808 273.082 19.912 273.498 19.912C273.834 19.912 274.162 19.872 274.482 19.792C274.802 19.712 275.09 19.584 275.346 19.408C275.602 19.232 275.802 18.992 275.946 18.688C276.09 18.384 276.162 18.016 276.162 17.584V14.344ZM283.103 27.04V10H286.055L286.271 13.816L285.863 13.384C286.007 12.68 286.271 12.056 286.655 11.512C287.055 10.968 287.559 10.544 288.167 10.24C288.775 9.92 289.455 9.76 290.207 9.76C291.183 9.76 292.055 10.008 292.823 10.504C293.591 11 294.191 11.712 294.623 12.64C295.071 13.552 295.295 14.664 295.295 15.976C295.295 17.288 295.071 18.416 294.623 19.36C294.175 20.288 293.559 21 292.775 21.496C292.007 21.992 291.127 22.24 290.135 22.24C289.079 22.24 288.199 21.944 287.495 21.352C286.807 20.76 286.335 20.016 286.079 19.12L286.391 18.616V27.04H283.103ZM289.175 19.72C290.055 19.72 290.743 19.408 291.239 18.784C291.751 18.144 292.007 17.216 292.007 16C292.007 14.784 291.759 13.864 291.263 13.24C290.783 12.6 290.103 12.28 289.223 12.28C288.663 12.28 288.167 12.432 287.735 12.736C287.319 13.024 286.991 13.448 286.751 14.008C286.511 14.552 286.391 15.216 286.391 16C286.391 16.752 286.503 17.416 286.727 17.992C286.951 18.552 287.271 18.984 287.687 19.288C288.119 19.576 288.615 19.72 289.175 19.72ZM298.15 27.04V10H301.102L301.318 13.816L300.91 13.384C301.054 12.68 301.318 12.056 301.702 11.512C302.102 10.968 302.606 10.544 303.214 10.24C303.822 9.92 304.502 9.76 305.254 9.76C306.23 9.76 307.102 10.008 307.87 10.504C308.638 11 309.238 11.712 309.67 12.64C310.118 13.552 310.342 14.664 310.342 15.976C310.342 17.288 310.118 18.416 309.67 19.36C309.222 20.288 308.606 21 307.822 21.496C307.054 21.992 306.174 22.24 305.182 22.24C304.126 22.24 303.246 21.944 302.542 21.352C301.854 20.76 301.382 20.016 301.126 19.12L301.438 18.616V27.04H298.15ZM304.222 19.72C305.102 19.72 305.79 19.408 306.286 18.784C306.798 18.144 307.054 17.216 307.054 16C307.054 14.784 306.806 13.864 306.31 13.24C305.83 12.6 305.15 12.28 304.27 12.28C303.71 12.28 303.214 12.432 302.782 12.736C302.366 13.024 302.038 13.448 301.798 14.008C301.558 14.552 301.438 15.216 301.438 16C301.438 16.752 301.55 17.416 301.774 17.992C301.998 18.552 302.318 18.984 302.734 19.288C303.166 19.576 303.662 19.72 304.222 19.72ZM323.914 10L319.066 22.744C318.682 23.832 318.25 24.696 317.77 25.336C317.306 25.976 316.762 26.44 316.138 26.728C315.53 27.016 314.802 27.16 313.954 27.16C313.33 27.16 312.754 27.08 312.226 26.92C311.714 26.776 311.266 26.584 310.882 26.344L311.578 23.968C311.882 24.208 312.202 24.376 312.538 24.472C312.874 24.584 313.258 24.64 313.69 24.64C314.138 24.64 314.522 24.544 314.842 24.352C315.178 24.16 315.458 23.776 315.682 23.2L316.09 22.168L314.77 19.048L311.098 10H314.746L317.026 17.2L317.65 19.6L318.394 17.056L320.578 10H323.914ZM346.405 17.632C346.101 18.656 345.621 19.512 344.965 20.2C344.309 20.888 343.533 21.4 342.637 21.736C341.741 22.072 340.757 22.24 339.685 22.24C338.117 22.24 336.757 21.912 335.605 21.256C334.469 20.6 333.589 19.664 332.965 18.448C332.357 17.232 332.053 15.776 332.053 14.08C332.053 12.384 332.357 10.928 332.965 9.712C333.589 8.496 334.469 7.56 335.605 6.904C336.757 6.248 338.101 5.92 339.637 5.92C340.725 5.92 341.709 6.072 342.589 6.376C343.469 6.664 344.213 7.12 344.821 7.744C345.445 8.352 345.901 9.112 346.189 10.024L343.189 11.296C342.917 10.336 342.501 9.656 341.941 9.256C341.381 8.84 340.661 8.632 339.781 8.632C338.917 8.632 338.157 8.84 337.501 9.256C336.861 9.672 336.365 10.288 336.013 11.104C335.661 11.904 335.485 12.896 335.485 14.08C335.485 15.248 335.645 16.24 335.965 17.056C336.301 17.872 336.789 18.488 337.429 18.904C338.069 19.32 338.853 19.528 339.781 19.528C340.645 19.528 341.389 19.296 342.013 18.832C342.653 18.368 343.101 17.664 343.357 16.72L346.405 17.632ZM353.068 22.24C352.268 22.24 351.548 22.096 350.908 21.808C350.268 21.52 349.756 21.064 349.372 20.44C349.004 19.8 348.82 18.976 348.82 17.968V10H352.108V17.176C352.108 18.104 352.3 18.752 352.684 19.12C353.068 19.472 353.62 19.648 354.34 19.648C354.676 19.648 355.004 19.592 355.324 19.48C355.644 19.352 355.924 19.16 356.164 18.904C356.42 18.648 356.62 18.32 356.764 17.92C356.908 17.504 356.98 17.016 356.98 16.456V10H360.268V22H357.34L357.22 19.912C356.82 20.712 356.268 21.304 355.564 21.688C354.876 22.056 354.044 22.24 353.068 22.24ZM368.528 22.24C367.312 22.24 366.2 22.024 365.192 21.592C364.2 21.16 363.392 20.552 362.768 19.768L364.664 17.848C365.048 18.424 365.56 18.896 366.2 19.264C366.84 19.632 367.6 19.816 368.48 19.816C369.104 19.816 369.6 19.728 369.968 19.552C370.352 19.36 370.544 19.064 370.544 18.664C370.544 18.408 370.456 18.192 370.28 18.016C370.104 17.824 369.752 17.672 369.224 17.56L367.112 17.128C365.72 16.84 364.728 16.408 364.136 15.832C363.56 15.24 363.272 14.48 363.272 13.552C363.272 12.896 363.464 12.28 363.848 11.704C364.248 11.128 364.84 10.664 365.624 10.312C366.408 9.944 367.384 9.76 368.552 9.76C369.752 9.76 370.792 9.952 371.672 10.336C372.568 10.704 373.272 11.256 373.784 11.992L371.816 13.912C371.464 13.352 371 12.928 370.424 12.64C369.864 12.336 369.272 12.184 368.648 12.184C368.2 12.184 367.816 12.232 367.496 12.328C367.176 12.424 366.936 12.56 366.776 12.736C366.616 12.896 366.536 13.104 366.536 13.36C366.536 13.616 366.648 13.84 366.872 14.032C367.096 14.208 367.504 14.36 368.096 14.488L370.544 14.992C371.728 15.232 372.576 15.64 373.088 16.216C373.6 16.776 373.856 17.456 373.856 18.256C373.856 19.024 373.648 19.712 373.232 20.32C372.832 20.912 372.232 21.384 371.432 21.736C370.648 22.072 369.68 22.24 368.528 22.24ZM380.726 6.328V18.088C380.726 18.664 380.87 19.088 381.158 19.36C381.462 19.616 381.87 19.744 382.382 19.744C382.798 19.744 383.15 19.688 383.438 19.576C383.742 19.448 384.014 19.28 384.254 19.072L384.782 21.256C384.398 21.56 383.918 21.8 383.342 21.976C382.766 22.152 382.158 22.24 381.518 22.24C380.718 22.24 380.006 22.12 379.382 21.88C378.774 21.64 378.294 21.256 377.942 20.728C377.606 20.2 377.438 19.496 377.438 18.616V7.24L380.726 6.328ZM384.566 10V12.448H375.23V10H384.566ZM392.263 9.76C393.479 9.76 394.543 10.008 395.455 10.504C396.383 11 397.103 11.712 397.615 12.64C398.143 13.568 398.407 14.688 398.407 16C398.407 17.296 398.143 18.416 397.615 19.36C397.103 20.288 396.383 21 395.455 21.496C394.543 21.992 393.479 22.24 392.263 22.24C391.063 22.24 389.999 21.992 389.071 21.496C388.143 21 387.415 20.288 386.887 19.36C386.375 18.416 386.119 17.296 386.119 16C386.119 14.688 386.375 13.568 386.887 12.64C387.415 11.712 388.143 11 389.071 10.504C389.999 10.008 391.063 9.76 392.263 9.76ZM392.263 12.208C391.655 12.208 391.135 12.352 390.703 12.64C390.287 12.912 389.967 13.328 389.743 13.888C389.519 14.448 389.407 15.152 389.407 16C389.407 16.848 389.519 17.552 389.743 18.112C389.967 18.672 390.287 19.096 390.703 19.384C391.135 19.656 391.655 19.792 392.263 19.792C392.855 19.792 393.359 19.656 393.775 19.384C394.207 19.096 394.535 18.672 394.759 18.112C394.983 17.552 395.095 16.848 395.095 16C395.095 15.152 394.983 14.448 394.759 13.888C394.535 13.328 394.207 12.912 393.775 12.64C393.359 12.352 392.855 12.208 392.263 12.208ZM401.158 22V10H404.11L404.23 12.16C404.63 11.36 405.174 10.76 405.862 10.36C406.566 9.96 407.342 9.76 408.19 9.76C409.054 9.76 409.83 9.96 410.518 10.36C411.222 10.76 411.75 11.352 412.102 12.136C412.358 11.608 412.702 11.168 413.134 10.816C413.566 10.464 414.046 10.2 414.574 10.024C415.102 9.848 415.638 9.76 416.182 9.76C416.966 9.76 417.678 9.92 418.318 10.24C418.974 10.56 419.494 11.04 419.878 11.68C420.262 12.32 420.454 13.136 420.454 14.128V22H417.166V14.776C417.166 13.896 416.974 13.272 416.59 12.904C416.206 12.536 415.71 12.352 415.102 12.352C414.622 12.352 414.174 12.472 413.758 12.712C413.358 12.952 413.038 13.312 412.798 13.792C412.574 14.256 412.462 14.84 412.462 15.544V22H409.174V14.776C409.174 13.896 408.974 13.272 408.574 12.904C408.19 12.536 407.694 12.352 407.086 12.352C406.67 12.352 406.254 12.464 405.838 12.688C405.438 12.912 405.102 13.264 404.83 13.744C404.574 14.224 404.446 14.856 404.446 15.64V22H401.158ZM429.413 22.24C428.149 22.24 427.045 21.992 426.101 21.496C425.173 21 424.453 20.288 423.941 19.36C423.429 18.432 423.173 17.312 423.173 16C423.173 14.688 423.429 13.568 423.941 12.64C424.453 11.712 425.165 11 426.077 10.504C427.005 10.008 428.061 9.76 429.245 9.76C430.461 9.76 431.493 10.008 432.341 10.504C433.189 10.984 433.837 11.648 434.285 12.496C434.733 13.328 434.957 14.28 434.957 15.352C434.957 15.672 434.949 15.976 434.933 16.264C434.917 16.552 434.893 16.808 434.861 17.032H425.285V14.752H433.421L431.837 15.328C431.837 14.32 431.605 13.544 431.141 13C430.693 12.456 430.053 12.184 429.221 12.184C428.613 12.184 428.085 12.328 427.637 12.616C427.205 12.904 426.877 13.336 426.653 13.912C426.429 14.472 426.317 15.184 426.317 16.048C426.317 16.896 426.437 17.6 426.677 18.16C426.933 18.704 427.285 19.112 427.733 19.384C428.197 19.656 428.749 19.792 429.389 19.792C430.093 19.792 430.661 19.656 431.093 19.384C431.525 19.112 431.861 18.736 432.101 18.256L434.717 19.264C434.461 19.888 434.069 20.424 433.541 20.872C433.029 21.32 432.413 21.664 431.693 21.904C430.989 22.128 430.229 22.24 429.413 22.24ZM437.744 22V10H440.6L440.816 12.352C441.136 11.52 441.6 10.88 442.208 10.432C442.832 9.984 443.608 9.76 444.536 9.76C444.808 9.76 445.056 9.784 445.28 9.832C445.504 9.88 445.688 9.944 445.832 10.024L445.448 12.784C445.288 12.72 445.088 12.672 444.848 12.64C444.624 12.608 444.328 12.592 443.96 12.592C443.48 12.592 443.016 12.712 442.568 12.952C442.12 13.176 441.752 13.528 441.464 14.008C441.176 14.472 441.032 15.064 441.032 15.784V22H437.744ZM452.364 22.24C451.148 22.24 450.036 22.024 449.028 21.592C448.036 21.16 447.228 20.552 446.604 19.768L448.5 17.848C448.884 18.424 449.396 18.896 450.036 19.264C450.676 19.632 451.436 19.816 452.316 19.816C452.94 19.816 453.436 19.728 453.804 19.552C454.188 19.36 454.38 19.064 454.38 18.664C454.38 18.408 454.292 18.192 454.116 18.016C453.94 17.824 453.588 17.672 453.06 17.56L450.948 17.128C449.556 16.84 448.564 16.408 447.972 15.832C447.396 15.24 447.108 14.48 447.108 13.552C447.108 12.896 447.3 12.28 447.684 11.704C448.084 11.128 448.676 10.664 449.46 10.312C450.244 9.944 451.22 9.76 452.388 9.76C453.588 9.76 454.628 9.952 455.508 10.336C456.404 10.704 457.108 11.256 457.62 11.992L455.652 13.912C455.3 13.352 454.836 12.928 454.26 12.64C453.7 12.336 453.108 12.184 452.484 12.184C452.036 12.184 451.652 12.232 451.332 12.328C451.012 12.424 450.772 12.56 450.612 12.736C450.452 12.896 450.372 13.104 450.372 13.36C450.372 13.616 450.484 13.84 450.708 14.032C450.932 14.208 451.34 14.36 451.932 14.488L454.38 14.992C455.564 15.232 456.412 15.64 456.924 16.216C457.436 16.776 457.692 17.456 457.692 18.256C457.692 19.024 457.484 19.712 457.068 20.32C456.668 20.912 456.068 21.384 455.268 21.736C454.484 22.072 453.516 22.24 452.364 22.24Z" fill="#1A2F5A"/>
</svg>
